<svg xmlns="http://www.w3.org/2000/svg" xmlns:xlink="http://www.w3.org/1999/xlink" viewBox="0 0 3761.62 2774.25"><defs><style>.cls-1{fill:#90b4ce;}.cls-12,.cls-2,.cls-4{fill:#3da9fc;}.cls-2{stroke:#000;stroke-miterlimit:10;}.cls-3{fill:#094067;}.cls-4{opacity:0.53;}.cls-5{fill:#fff;}.cls-6{fill:url(#linear-gradient);}.cls-7{fill:url(#linear-gradient-2);}.cls-8{fill:url(#linear-gradient-3);}.cls-9{fill:url(#linear-gradient-4);}.cls-10{fill:url(#linear-gradient-5);}.cls-11{fill:url(#linear-gradient-6);}.cls-13{fill:url(#linear-gradient-7);}.cls-14{fill:url(#linear-gradient-8);}.cls-15{fill:#5f6c7b;}.cls-16{fill:#4f5051;}.cls-17{fill:url(#linear-gradient-9);}.cls-18{fill:url(#linear-gradient-10);}.cls-19{fill:url(#linear-gradient-11);}.cls-20{fill:url(#linear-gradient-12);}.cls-21{fill:url(#linear-gradient-13);}.cls-22{fill:url(#linear-gradient-14);}.cls-23{fill:url(#linear-gradient-15);}.cls-24{fill:url(#linear-gradient-16);}.cls-25{fill:url(#linear-gradient-17);}.cls-26{fill:url(#linear-gradient-18);}.cls-27{fill:#91b5cf;}</style><linearGradient id="linear-gradient" x1="2004.84" y1="713.26" x2="2073.65" y2="713.26" gradientUnits="userSpaceOnUse"><stop offset="0" stop-color="#dae3fe"/><stop offset="1" stop-color="#e9effd"/></linearGradient><linearGradient id="linear-gradient-2" x1="2111.16" y1="708.85" x2="2235.87" y2="708.85" xlink:href="#linear-gradient"/><linearGradient id="linear-gradient-3" x1="2671.01" y1="1419.33" x2="2758.69" y2="1419.33" xlink:href="#linear-gradient"/><linearGradient id="linear-gradient-4" x1="2780.76" y1="1421.62" x2="2861.31" y2="1421.62" xlink:href="#linear-gradient"/><linearGradient id="linear-gradient-5" x1="2885.57" y1="1424.28" x2="2971.9" y2="1424.28" xlink:href="#linear-gradient"/><linearGradient id="linear-gradient-6" x1="1431.6" y1="1616.52" x2="1873.94" y2="691.63" gradientUnits="userSpaceOnUse"><stop offset="0" stop-color="#e1473d"/><stop offset="1" stop-color="#e9605a"/></linearGradient><linearGradient id="linear-gradient-7" x1="958.69" y1="3038.34" x2="1029.73" y2="3038.34" gradientTransform="translate(646.41)" gradientUnits="userSpaceOnUse"><stop offset="0" stop-color="#febbba"/><stop offset="1" stop-color="#ff928e"/></linearGradient><linearGradient id="linear-gradient-8" x1="559.67" y1="3001.29" x2="644.58" y2="3001.29" xlink:href="#linear-gradient-7"/><linearGradient id="linear-gradient-9" x1="1708.49" y1="1515.93" x2="1371.71" y2="2285.01" gradientUnits="userSpaceOnUse"><stop offset="0" stop-color="#fe7062"/><stop offset="1" stop-color="#ff928e"/></linearGradient><linearGradient id="linear-gradient-10" x1="977.96" y1="1495.6" x2="1014.75" y2="1302.46" xlink:href="#linear-gradient-7"/><linearGradient id="linear-gradient-11" x1="1077.51" y1="1141.25" x2="867.61" y2="1301.86" xlink:href="#linear-gradient-7"/><linearGradient id="linear-gradient-12" x1="1051.47" y1="1107.22" x2="841.57" y2="1267.83" xlink:href="#linear-gradient-7"/><linearGradient id="linear-gradient-13" x1="1211.64" y1="1191.82" x2="1437.84" y2="478.04" xlink:href="#linear-gradient-7"/><linearGradient id="linear-gradient-14" x1="-540.21" y1="-10631.96" x2="-314.01" y2="-11345.74" gradientTransform="matrix(-1, 0, 0, 1, -2825.47, 0)" xlink:href="#linear-gradient-7"/><linearGradient id="linear-gradient-15" x1="1977.99" y1="1633.95" x2="1641.21" y2="2403.02" xlink:href="#linear-gradient-9"/><linearGradient id="linear-gradient-16" x1="7915.95" y1="-2555.77" x2="8217.55" y2="-2691.49" gradientTransform="translate(3123.93 339.01) rotate(6.16)" xlink:href="#linear-gradient-7"/><linearGradient id="linear-gradient-17" x1="7923.55" y1="-2539.98" x2="8225.16" y2="-2675.7" gradientTransform="translate(3123.93 339.01) rotate(6.16)" xlink:href="#linear-gradient-7"/><linearGradient id="linear-gradient-18" x1="1845.52" y1="1489.62" x2="1885.81" y2="1489.62" xlink:href="#linear-gradient-6"/></defs><g id="Illustration"><path class="cls-1" d="M2913.64,2848.44c-57.1,59.6-111.14,98-153.83,128.41C2258,3333.85,1664.22,3229.79,1538,3204.37c-186.35-37.52-546.56-110.06-807-413.71-394-459.4-332.65-1183.17-27-1660.94,55.9-87.39,351.19-572.43,951.37-650.22C2018.59,432.42,2442,527.37,2748.6,782.06,3392.21,1316.69,3346.39,2396.73,2913.64,2848.44Z" transform="translate(506.62 -467.88)"/><path class="cls-2" d="M977,1999.79s-130-280.1-32.58-412.6S1269,1299.41,1101.39,889C1003.24,648.67,963.83,542.09,948,495A29.22,29.22,0,0,0,903.9,480.1c-113.33,77-472.72,347.36-437.62,657.72C507.89,1505.75,977,1999.79,977,1999.79Z" transform="translate(506.62 -467.88)"/><path class="cls-1" d="M857.65,634.74c-82.9,179.87-146.47,462-136.86,712.29,4.62,39.92,5.9,128.54,50.28,267.68,36.2,116.39,93.36,231.15,141.94,302.43a9.87,9.87,0,0,0,13.72,2.6c7.75-5.28,2.67-13.88,2.72-13.56-74.65-125.43-139.6-293.72-165.92-459.63-30.4-204.55,2.31-429.94,50.52-630l5.26-19.92c38.85-151.57,57-160.48,45.37-164.78A5.62,5.62,0,0,0,857.65,634.74Z" transform="translate(506.62 -467.88)"/><path class="cls-2" d="M1084.53,2097.15c-16,15.57,3.5-323.19-62.31-738.27-31-195.6-7.9-406.34,68.83-530.61,63.87-103.43,379.29-153.87,483.31-167.88a15.48,15.48,0,0,1,15.23,23.53c-34.22,54.86-104.6,180.9-100.26,283.44,5.72,135.15-86.44,252.28-184.95,307.92s-150.45,95.42-147,280.78S1130.13,2052.9,1084.53,2097.15Z" transform="translate(506.62 -467.88)"/><path class="cls-1" d="M1453.3,757.66c-123.56,46-239.43,146.89-272.79,276.28l-3.12,12.32c-7.07,28.83-35.9,226.74-36.75,383.3a3.54,3.54,0,0,0,3.52,3.55,3.6,3.6,0,0,0,3.55-3.38c6.65-90.45,20.57-206.91,33.26-294.75,13.14-95.62,23-160.67,96.79-243.94,82.82-90.76,178-128.28,177.68-128.13a2.82,2.82,0,0,0,1.44-3.73A2.85,2.85,0,0,0,1453.3,757.66Z" transform="translate(506.62 -467.88)"/><path class="cls-3" d="M597.9,2601.38a45.45,45.45,0,0,0,45.34,45.29H3094.69a45.44,45.44,0,0,0,45.33-45.29l20.4-1408.78c0-24.91-29.35-73.54-83.13-69.89l-2395.83-62a114.26,114.26,0,0,0-117.22,116.84Z" transform="translate(506.62 -467.88)"/><path class="cls-1" d="M642.66,2557.93a43,43,0,0,0,42.89,42.89h2350a43,43,0,0,0,42.89-42.89L3097.71,1279c-2.27-77-69.74-104.63-110.64-103L690.88,1114.43a80.3,80.3,0,0,0-82.37,82.16Z" transform="translate(506.62 -467.88)"/><rect class="cls-3" x="471.43" y="2639.84" width="2783.57" height="123.78" rx="5.65" transform="translate(4233.04 4935.58) rotate(180)"/><path class="cls-4" d="M1416.6,1309l-623.47-4.37a8.27,8.27,0,0,1-8.22-8.34l.28-39.87a8.28,8.28,0,0,1,8.34-8.23l623.47,4.37a8.28,8.28,0,0,1,8.22,8.34l-.28,39.87A8.28,8.28,0,0,1,1416.6,1309Z" transform="translate(506.62 -467.88)"/><path class="cls-4" d="M1817.57,1313.05l-208.69-1.46a8,8,0,0,1-7.89-8l.29-40.55a8,8,0,0,1,8-7.89l208.69,1.46a8,8,0,0,1,7.89,8l-.29,40.54A7.94,7.94,0,0,1,1817.57,1313.05Z" transform="translate(506.62 -467.88)"/><path class="cls-4" d="M2302.7,1316.45l-418.27-2.93a12.64,12.64,0,0,1-12.55-12.72l.22-31.17a12.64,12.64,0,0,1,12.72-12.55l418.27,2.93a12.64,12.64,0,0,1,12.55,12.72l-.22,31.18A12.63,12.63,0,0,1,2302.7,1316.45Z" transform="translate(506.62 -467.88)"/><rect class="cls-4" x="840.95" y="1290.37" width="56.44" height="171.58" rx="12.63" transform="translate(-6.42 1767.79) rotate(-89.6)"/><path class="cls-4" d="M1417.18,1408.31l-448.91-3.14a8.28,8.28,0,0,1-8.22-8.34l.28-39.87a8.28,8.28,0,0,1,8.34-8.23l448.9,3.15a8.27,8.27,0,0,1,8.22,8.34l-.28,39.87A8.27,8.27,0,0,1,1417.18,1408.31Z" transform="translate(506.62 -467.88)"/><path class="cls-4" d="M1818.68,1412.35,1610,1410.89a7.94,7.94,0,0,1-7.89-8l.29-40.55a8,8,0,0,1,8-7.89l208.68,1.47a7.94,7.94,0,0,1,7.89,8l-.28,40.54A7.94,7.94,0,0,1,1818.68,1412.35Z" transform="translate(506.62 -467.88)"/><path class="cls-4" d="M2665.13,1418.28l-624.49-4.37a12.63,12.63,0,0,1-12.54-12.72l.21-31.18a12.64,12.64,0,0,1,12.72-12.54l624.49,4.37a12.64,12.64,0,0,1,12.55,12.72l-.22,31.18A12.64,12.64,0,0,1,2665.13,1418.28Z" transform="translate(506.62 -467.88)"/><rect class="cls-4" x="840.14" y="1389.51" width="56.44" height="171.58" rx="12.63" transform="translate(-106.37 1865.42) rotate(-89.6)"/><path class="cls-4" d="M1416.26,1507.46l-448.91-3.15a8.28,8.28,0,0,1-8.22-8.34l.28-39.87a8.28,8.28,0,0,1,8.34-8.23l448.9,3.15a8.28,8.28,0,0,1,8.23,8.34l-.28,39.87A8.29,8.29,0,0,1,1416.26,1507.46Z" transform="translate(506.62 -467.88)"/><path class="cls-4" d="M1817.82,1511.49,1609.13,1510a8,8,0,0,1-7.89-8l.29-40.54a7.94,7.94,0,0,1,8-7.89l208.69,1.46a8,8,0,0,1,7.89,8l-.29,40.54A7.94,7.94,0,0,1,1817.82,1511.49Z" transform="translate(506.62 -467.88)"/><path class="cls-4" d="M2940.86,1519.36l-821.4-5.75a12.64,12.64,0,0,1-12.55-12.72l.22-31.18a12.64,12.64,0,0,1,12.72-12.54l821.41,5.75a12.63,12.63,0,0,1,12.54,12.72l-.22,31.18A12.62,12.62,0,0,1,2940.86,1519.36Z" transform="translate(506.62 -467.88)"/><rect class="cls-4" x="840.82" y="1488.8" width="56.44" height="171.58" rx="12.63" transform="matrix(0.01, -1, 1, 0.01, -204.99, 1964.71)"/><path class="cls-4" d="M1418,1606.76l-448.91-3.14a8.28,8.28,0,0,1-8.22-8.34l.28-39.88a8.28,8.28,0,0,1,8.34-8.22l448.91,3.14a8.29,8.29,0,0,1,8.22,8.34l-.28,39.88A8.28,8.28,0,0,1,1418,1606.76Z" transform="translate(506.62 -467.88)"/><path class="cls-4" d="M1818.93,1610.79l-208.69-1.46a8,8,0,0,1-7.89-8l.29-40.54a7.94,7.94,0,0,1,8-7.89l208.69,1.46a8,8,0,0,1,7.89,8l-.29,40.54A7.94,7.94,0,0,1,1818.93,1610.79Z" transform="translate(506.62 -467.88)"/><path class="cls-4" d="M2944.62,1618.68l-821.41-5.75a12.64,12.64,0,0,1-12.54-12.72l.22-31.18a12.62,12.62,0,0,1,12.72-12.54l821.4,5.75a12.63,12.63,0,0,1,12.55,12.72l-.22,31.18A12.63,12.63,0,0,1,2944.62,1618.68Z" transform="translate(506.62 -467.88)"/><rect class="cls-4" x="839.58" y="1591.82" width="56.44" height="171.58" rx="12.63" transform="translate(-309.24 2065.76) rotate(-89.6)"/><path class="cls-4" d="M1416.36,1709.78l-448.9-3.14a8.28,8.28,0,0,1-8.22-8.34l.28-39.88a8.28,8.28,0,0,1,8.33-8.22l448.91,3.14a8.28,8.28,0,0,1,8.22,8.34l-.28,39.88A8.28,8.28,0,0,1,1416.36,1709.78Z" transform="translate(506.62 -467.88)"/><path class="cls-4" d="M1817.53,1713.81l-208.69-1.46a7.94,7.94,0,0,1-7.89-8l.28-40.55a8,8,0,0,1,8-7.89l208.68,1.47a7.94,7.94,0,0,1,7.89,8l-.28,40.54A7.94,7.94,0,0,1,1817.53,1713.81Z" transform="translate(506.62 -467.88)"/><path class="cls-4" d="M2942.22,1721.69l-821.41-5.75a12.63,12.63,0,0,1-12.54-12.72l.22-31.18a12.62,12.62,0,0,1,12.72-12.54l821.4,5.75a12.64,12.64,0,0,1,12.55,12.72l-.22,31.18A12.64,12.64,0,0,1,2942.22,1721.69Z" transform="translate(506.62 -467.88)"/><rect class="cls-4" x="840.26" y="1691.12" width="56.44" height="171.58" rx="12.63" transform="translate(-407.85 2165.05) rotate(-89.6)"/><path class="cls-4" d="M1418.12,1809.08l-448.91-3.14a8.28,8.28,0,0,1-8.22-8.34l.28-39.87a8.28,8.28,0,0,1,8.34-8.23l448.9,3.15a8.26,8.26,0,0,1,8.22,8.34l-.27,39.87A8.28,8.28,0,0,1,1418.12,1809.08Z" transform="translate(506.62 -467.88)"/><path class="cls-4" d="M1818.64,1813.11,1610,1811.65a7.94,7.94,0,0,1-7.89-8l.28-40.55a8,8,0,0,1,8-7.89l208.68,1.47a7.94,7.94,0,0,1,7.89,8l-.28,40.54A7.94,7.94,0,0,1,1818.64,1813.11Z" transform="translate(506.62 -467.88)"/><path class="cls-4" d="M2374.39,1817l-493.46-3.46a12.63,12.63,0,0,1-12.55-12.72l.22-31.17a12.63,12.63,0,0,1,12.72-12.55l493.47,3.46a12.63,12.63,0,0,1,12.54,12.72l-.22,31.17A12.64,12.64,0,0,1,2374.39,1817Z" transform="translate(506.62 -467.88)"/><path class="cls-4" d="M1417.54,1908.23l-627-4.39a8.28,8.28,0,0,1-8.22-8.34l.28-39.88a8.28,8.28,0,0,1,8.34-8.22l627,4.39a8.28,8.28,0,0,1,8.22,8.34l-.28,39.88A8.28,8.28,0,0,1,1417.54,1908.23Z" transform="translate(506.62 -467.88)"/><path class="cls-4" d="M1817.78,1912.26l-208.69-1.47a7.94,7.94,0,0,1-7.89-8l.29-40.54a7.94,7.94,0,0,1,8-7.89l208.68,1.46a7.94,7.94,0,0,1,7.89,8l-.28,40.55A8,8,0,0,1,1817.78,1912.26Z" transform="translate(506.62 -467.88)"/><path class="cls-4" d="M2618.59,1917.86l-621.45-4.35a12.62,12.62,0,0,1-12.54-12.72l.21-31.17a12.65,12.65,0,0,1,12.72-12.55l621.46,4.36a12.63,12.63,0,0,1,12.54,12.72l-.22,31.17A12.62,12.62,0,0,1,2618.59,1917.86Z" transform="translate(506.62 -467.88)"/><rect class="cls-4" x="837.1" y="1892.97" width="56.44" height="164.72" rx="12.63" transform="translate(-609.41 2358.91) rotate(-89.6)"/><path class="cls-4" d="M1419,2007.53l-448.9-3.14a8.29,8.29,0,0,1-8.23-8.34l.28-39.88a8.28,8.28,0,0,1,8.34-8.22l448.91,3.14a8.29,8.29,0,0,1,8.22,8.34l-.28,39.88A8.28,8.28,0,0,1,1419,2007.53Z" transform="translate(506.62 -467.88)"/><path class="cls-4" d="M1818.89,2011.56l-208.69-1.47a7.94,7.94,0,0,1-7.89-8l.29-40.54a7.94,7.94,0,0,1,8-7.89l208.68,1.46a7.94,7.94,0,0,1,7.89,8l-.28,40.55A8,8,0,0,1,1818.89,2011.56Z" transform="translate(506.62 -467.88)"/><path class="cls-4" d="M2945.72,2019.45l-850.17-6a12.62,12.62,0,0,1-12.54-12.72l.21-31.17a12.63,12.63,0,0,1,12.72-12.54l850.17,6a12.62,12.62,0,0,1,12.54,12.72l-.21,31.17A12.64,12.64,0,0,1,2945.72,2019.45Z" transform="translate(506.62 -467.88)"/><rect class="cls-4" x="834.49" y="2185.83" width="56.44" height="171.58" rx="12.63" transform="translate(-908.28 2650.52) rotate(-89.6)"/><path class="cls-4" d="M1412.57,2303.79l-448.9-3.14a8.29,8.29,0,0,1-8.23-8.34l.28-39.87a8.29,8.29,0,0,1,8.34-8.23l448.91,3.15a8.28,8.28,0,0,1,8.22,8.34l-.28,39.87A8.27,8.27,0,0,1,1412.57,2303.79Z" transform="translate(506.62 -467.88)"/><path class="cls-4" d="M1812.87,2307.82l-208.69-1.46a8,8,0,0,1-7.89-8l.29-40.55a7.94,7.94,0,0,1,8-7.89l208.68,1.46a7.94,7.94,0,0,1,7.89,8l-.28,40.55A7.94,7.94,0,0,1,1812.87,2307.82Z" transform="translate(506.62 -467.88)"/><path class="cls-4" d="M2368.62,2311.71l-493.46-3.45a12.64,12.64,0,0,1-12.55-12.72l.22-31.18a12.64,12.64,0,0,1,12.72-12.54l493.47,3.45a12.64,12.64,0,0,1,12.54,12.72l-.22,31.18A12.63,12.63,0,0,1,2368.62,2311.71Z" transform="translate(506.62 -467.88)"/><path class="cls-4" d="M1412,2402.94l-627-4.39a8.29,8.29,0,0,1-8.23-8.34l.28-39.88a8.29,8.29,0,0,1,8.34-8.22l627,4.39a8.29,8.29,0,0,1,8.23,8.34l-.28,39.88A8.28,8.28,0,0,1,1412,2402.94Z" transform="translate(506.62 -467.88)"/><path class="cls-4" d="M1812,2407l-208.69-1.46a7.94,7.94,0,0,1-7.89-8l.29-40.55a7.94,7.94,0,0,1,8-7.89l208.68,1.46a7.94,7.94,0,0,1,7.89,8l-.28,40.54A7.94,7.94,0,0,1,1812,2407Z" transform="translate(506.62 -467.88)"/><path class="cls-4" d="M2612.47,2412.57,1991,2408.21a12.62,12.62,0,0,1-12.54-12.72l.22-31.17a12.62,12.62,0,0,1,12.72-12.54l621.45,4.35a12.63,12.63,0,0,1,12.54,12.72l-.22,31.17A12.63,12.63,0,0,1,2612.47,2412.57Z" transform="translate(506.62 -467.88)"/><rect class="cls-4" x="831.33" y="2387.68" width="56.44" height="164.72" rx="12.63" transform="translate(-1109.83 2844.38) rotate(-89.6)"/><path class="cls-4" d="M1413.41,2502.24,964.5,2499.1a8.29,8.29,0,0,1-8.22-8.34l.28-39.88a8.28,8.28,0,0,1,8.34-8.22l448.9,3.14a8.28,8.28,0,0,1,8.22,8.34l-.27,39.88A8.29,8.29,0,0,1,1413.41,2502.24Z" transform="translate(506.62 -467.88)"/><path class="cls-4" d="M1813.12,2506.26l-208.69-1.46a7.94,7.94,0,0,1-7.89-8l.29-40.55a7.94,7.94,0,0,1,8-7.89l208.68,1.46a8,8,0,0,1,7.89,8l-.28,40.54A7.94,7.94,0,0,1,1813.12,2506.26Z" transform="translate(506.62 -467.88)"/><path class="cls-4" d="M2939.6,2514.15l-850.17-6a12.64,12.64,0,0,1-12.54-12.72l.22-31.18a12.63,12.63,0,0,1,12.72-12.54l850.16,5.95a12.64,12.64,0,0,1,12.55,12.72l-.22,31.18A12.64,12.64,0,0,1,2939.6,2514.15Z" transform="translate(506.62 -467.88)"/><rect class="cls-4" x="834.46" y="1993.94" width="56.44" height="164.72" rx="12.63" transform="translate(-712.99 2456.54) rotate(-89.6)"/><path class="cls-4" d="M1414.68,2108.49l-448.9-3.15a8.27,8.27,0,0,1-8.22-8.34l.28-39.87a8.28,8.28,0,0,1,8.33-8.23l448.91,3.15a8.27,8.27,0,0,1,8.22,8.34l-.28,39.87A8.28,8.28,0,0,1,1414.68,2108.49Z" transform="translate(506.62 -467.88)"/><path class="cls-4" d="M1815.56,2112.52l-208.69-1.46a8,8,0,0,1-7.89-8l.28-40.54a8,8,0,0,1,8-7.89l208.69,1.46a7.94,7.94,0,0,1,7.89,8l-.28,40.55A8,8,0,0,1,1815.56,2112.52Z" transform="translate(506.62 -467.88)"/><path class="cls-4" d="M2938.32,2120.38l-850.17-6a12.63,12.63,0,0,1-12.54-12.72l.21-31.18a12.64,12.64,0,0,1,12.72-12.54l850.17,6a12.63,12.63,0,0,1,12.54,12.72l-.21,31.18A12.64,12.64,0,0,1,2938.32,2120.38Z" transform="translate(506.62 -467.88)"/><rect class="cls-4" x="835.09" y="2093.23" width="56.44" height="164.72" rx="12.63" transform="translate(-811.66 2555.77) rotate(-89.6)"/><path class="cls-4" d="M1416.44,2207.79l-448.91-3.14a8.28,8.28,0,0,1-8.22-8.34l.28-39.88a8.28,8.28,0,0,1,8.34-8.22l448.9,3.14a8.28,8.28,0,0,1,8.22,8.34l-.27,39.88A8.29,8.29,0,0,1,1416.44,2207.79Z" transform="translate(506.62 -467.88)"/><path class="cls-4" d="M1816.66,2211.82,1608,2210.36a8,8,0,0,1-7.89-8l.28-40.54a8,8,0,0,1,8-7.89l208.69,1.46a7.94,7.94,0,0,1,7.89,8l-.28,40.55A8,8,0,0,1,1816.66,2211.82Z" transform="translate(506.62 -467.88)"/><path class="cls-4" d="M2942.22,2219.7l-850.16-5.95a12.64,12.64,0,0,1-12.55-12.72l.22-31.18a12.63,12.63,0,0,1,12.72-12.54l850.17,6a12.64,12.64,0,0,1,12.54,12.72l-.22,31.18A12.63,12.63,0,0,1,2942.22,2219.7Z" transform="translate(506.62 -467.88)"/><path class="cls-4" d="M1513.92,2569.79l-11.44-.08a4.64,4.64,0,0,1-4.61-4.67l9.68-1381.56a4.63,4.63,0,0,1,4.67-4.6l11.44.08a4.63,4.63,0,0,1,4.6,4.67l-9.67,1381.55A4.64,4.64,0,0,1,1513.92,2569.79Z" transform="translate(506.62 -467.88)"/><circle class="cls-3" cx="3189.22" cy="1516.09" r="241.28"/><path class="cls-5" d="M2617.89,2036.32l-94.83-48.27v-15.54l94.83-54.91v26.45l-65.6,35,65.6,30.87Z" transform="translate(506.62 -467.88)"/><path class="cls-5" d="M2718.77,1896.17l-53.93,163-27.09-.27,53.5-162.35Z" transform="translate(506.62 -467.88)"/><path class="cls-5" d="M2738.82,2010.34l69.31-31.63-69.31-35.46v-26.93l101.08,55.4V1988l-101.08,49.16Z" transform="translate(506.62 -467.88)"/><circle class="cls-3" cx="2627.65" cy="253.96" r="241.28"/><path class="cls-6" d="M2024.14,818.18a69.41,69.41,0,0,1-19.3-2.75V787.08a61.44,61.44,0,0,0,15.39,2.37q10.8.13,15.48-6.84t4.69-21.91V609.11l33.25-.78V760.68q0,28.5-12.6,43.25T2024.14,818.18Z" transform="translate(506.62 -467.88)"/><path class="cls-7" d="M2235.87,752.34q0,26.53-19,41.58t-52.24,14.44q-30.41-.45-53.45-12.31V758.36q18.95,8.76,32.21,12.42a95.42,95.42,0,0,0,24.37,3.76q13.35.12,20.52-5t7.19-15.37a17.18,17.18,0,0,0-3.17-10.18,35.26,35.26,0,0,0-9.28-8.58q-6.11-4.11-24.77-13.1-17.42-8.28-26-15.86a59.12,59.12,0,0,1-13.75-17.63q-5.11-10-5.12-23.53,0-25.41,16.87-40.27t47.23-15.66a111.37,111.37,0,0,1,28.66,2.94,195.81,195.81,0,0,1,28.85,9.54l-13.37,32.48a189.06,189.06,0,0,0-25.66-8.54,80.87,80.87,0,0,0-19.8-2.21q-11.51.2-17.62,5.71a18.22,18.22,0,0,0-6.11,14.21,17.51,17.51,0,0,0,2.47,9.4,26.81,26.81,0,0,0,7.87,7.71q5.42,3.72,25.74,13.37,27.08,12.88,37.25,26T2235.87,752.34Z" transform="translate(506.62 -467.88)"/><circle class="cls-3" cx="3152.34" cy="375.3" r="238.76"/><path class="cls-5" d="M2550.59,893.19l-17.44-1V854.46l-32.43-1.6v37.57l-17.22-.95V802.66l17.22.72V837.5l32.43,1.52V804.73l17.44.73Z" transform="translate(506.62 -467.88)"/><path class="cls-5" d="M2609.74,896.46l-17.82-1V822.76l-22.69-1V806.23l63.48,2.64v15.68l-23-1Z" transform="translate(506.62 -467.88)"/><path class="cls-5" d="M2688.13,900.8l-20.73-71.23-.52,0Q2668,851,2668,858.13v41.55l-16.22-.89V809.67l24.74,1,20.43,69.47.35,0,21.81-67.72,25.26,1v90.39L2727,903V860.28c0-2,0-4.34.09-7s.33-9.61.81-20.93l-.54,0-22.46,69.37Z" transform="translate(506.62 -467.88)"/><path class="cls-5" d="M2772.74,905.48V814.7l18.84.78v75.1l36.34,1.92v16Z" transform="translate(506.62 -467.88)"/><circle class="cls-3" cx="2824.29" cy="1421.39" r="226.84" transform="translate(328.76 1945.51) rotate(-45)"/><path class="cls-8" d="M2724.36,1376.13q-13.84-.15-21.33,11.23t-7.42,31.7c.07,28.27,9.64,42.77,28.91,43.52q12.24.5,29.86-5.63l0,23a74.54,74.54,0,0,1-32.15,5.12q-25.1-1.18-38.16-18.49T2671,1418.27q0-19.61,6.28-34.29t18.39-22.6q12.12-7.91,28.64-7.88,17,0,34.37,9.22l-8.06,22.25a130.48,130.48,0,0,0-13.28-6.16A36.07,36.07,0,0,0,2724.36,1376.13Z" transform="translate(506.62 -467.88)"/><path class="cls-9" d="M2861.31,1452.58q0,18.12-12.3,28t-33.75,8.81q-19.62-.92-34.47-9.46l0-25.68a141.23,141.23,0,0,0,20.77,9.1,59.49,59.49,0,0,0,15.73,3q8.63.35,13.26-3t4.63-10.36a12.42,12.42,0,0,0-2.05-7,24.4,24.4,0,0,0-6-6q-3.95-2.92-16-9.41-11.24-6-16.8-11.32a41.63,41.63,0,0,1-8.88-12.28,37.09,37.09,0,0,1-3.32-16.15q0-17.34,10.85-27.2t30.5-9.89a69.11,69.11,0,0,1,18.55,2.51,125.2,125.2,0,0,1,18.69,7l-8.65,22a122.75,122.75,0,0,0-16.62-6.3,49.83,49.83,0,0,0-12.8-1.86q-7.44-.07-11.39,3.58a12.48,12.48,0,0,0-3.94,9.6,12.67,12.67,0,0,0,1.6,6.47,18.58,18.58,0,0,0,5.09,5.41q3.5,2.64,16.64,9.61,17.52,9.3,24.11,18.49T2861.31,1452.58Z" transform="translate(506.62 -467.88)"/><path class="cls-10" d="M2971.9,1456.37q0,18.78-13.23,29c-8.75,6.77-20.84,9.78-36.19,9.06q-21-1-36.91-9.85V1458a152,152,0,0,0,22.24,9.44,65.67,65.67,0,0,0,16.85,3.17q9.24.38,14.2-3.1t5-10.71a12.58,12.58,0,0,0-2.19-7.26,25.77,25.77,0,0,0-6.42-6.26q-4.23-3-17.15-9.76-12-6.19-18-11.73a43.07,43.07,0,0,1-9.49-12.72,37.37,37.37,0,0,1-3.54-16.71q0-17.94,11.66-28.14t32.69-10.23a75.93,75.93,0,0,1,19.88,2.6,136.93,136.93,0,0,1,20,7.28l-9.31,22.78a133.8,133.8,0,0,0-17.81-6.53,55.21,55.21,0,0,0-13.72-1.93q-8-.09-12.21,3.7a13.88,13.88,0,0,0-2.53,16.63,19.71,19.71,0,0,0,5.45,5.61q3.75,2.73,17.82,10,18.78,9.65,25.83,19.16T2971.9,1456.37Z" transform="translate(506.62 -467.88)"/><path class="cls-11" d="M1032.23,2634.22a15,15,0,0,0,3.57,23.54c39.78,21.85,139.81,61.52,224.13-31.64,108-119.3,371-675.92,403.41-818.84s155.09-363.13,222.47-389.11S1743,1407,1684.44,1408s-100.69-28-65.88-41.33c0,0-178-69.47-311.52,137.22-80.68,124.91-340.43,702.09-555.75,765.42-8,2.35,37.22,33,40.72,40.54,20.75,44.65,96.94,176.6,296.67,245.68C1088.68,2555.48,1062.76,2603.13,1032.23,2634.22Z" transform="translate(506.62 -467.88)"/><path class="cls-12" d="M1826.91,3144.59c-43.21,3.73-118.2,9.8-177.31,12.4-35.54,1.56-56-1.92-67.78-6.63,0,1.32,0,2.58.1,3.75a12.23,12.23,0,0,0,11.62,11.54c111.71,6.24,200.55,2.16,232.18.24a8.7,8.7,0,0,0,7.09-13.08A70.72,70.72,0,0,0,1826.91,3144.59Z" transform="translate(506.62 -467.88)"/><path class="cls-3" d="M1649.6,3157c59.11-2.6,134.1-8.67,177.31-12.4-42.48-52.12-177.31-87.25-177.31-87.25h-38.09c-26.19,37.75-30,73.7-29.69,93C1593.6,3155.07,1614.06,3158.55,1649.6,3157Z" transform="translate(506.62 -467.88)"/><path class="cls-13" d="M1605.1,2995.17l3.56,70.52a16.12,16.12,0,0,0,13.75,15.15,62.86,62.86,0,0,0,28.61-2.37,19.06,19.06,0,0,0,12.81-14.65l12.32-68.65Z" transform="translate(506.62 -467.88)"/><path class="cls-12" d="M1163.11,3225.94c-18.73-3.38-27.21-16-30.77-29.41,0,.12,0,.24-.07.36-2.75,14.19,3.64,28.89,16.41,35.89,15.45,8.45,32.33,9.89,45.44,9.19a42,42,0,0,0,34.07-20.31l.1-.18C1214.18,3230.51,1194.36,3231.57,1163.11,3225.94Z" transform="translate(506.62 -467.88)"/><path class="cls-3" d="M1251.46,3016.9h-31.41c-47.83-1.27-77.87,129.13-87.71,179.63,3.56,13.45,12,26,30.77,29.41,31.25,5.63,51.07,4.57,65.18-4.46,25.85-43.95,38.66-108.33,44.82-145.9C1280.11,3032.86,1251.46,3016.9,1251.46,3016.9Z" transform="translate(506.62 -467.88)"/><path class="cls-14" d="M1224.09,2951.44l-17.44,69.36a18.83,18.83,0,0,0,9.79,21.34c9.76,5,23.5,10.26,36.12,8.74a15.75,15.75,0,0,0,12.83-10.49l25.6-73Z" transform="translate(506.62 -467.88)"/><path class="cls-15" d="M1837.55,2037.93s-155.84,974.15-153.28,979.5c0,0-43,19.56-90,2.49,0,0,14.09-520.75,47.11-720.42,0,0-266,465.45-350.43,697.38,0,0-44-5.26-80.52-29.26,0,0,286.38-837.78,362.78-949.37Z" transform="translate(506.62 -467.88)"/><path class="cls-16" d="M1647.64,2293.71a3.88,3.88,0,0,1-3.28-5.94l58.23-93a3.88,3.88,0,0,1,2.53-1.75l42.86-8.63a3.89,3.89,0,1,1,1.53,7.62l-41.22,8.29-57.35,91.61A3.87,3.87,0,0,1,1647.64,2293.71Z" transform="translate(506.62 -467.88)"/><path class="cls-17" d="M1894.76,1364.17a121.48,121.48,0,0,0-32.64-6.44c-60.8-3.56-261.16-10.07-427,44.71a128.82,128.82,0,0,0-77.71,70.74c-44.85,102.92-117.46,337.32,84.11,455.65a499.44,499.44,0,0,1,48.65-92.06c-32.47-54.76-42.08-129.54,15.52-226.93,42,113.42,61.71,278.91,65.83,352.15a157.39,157.39,0,0,1-12.33,70.45l-1,2.42a8.35,8.35,0,0,0,5.86,11.39c113.48,25.49,231.5,18.56,266.76,15.65a14.55,14.55,0,0,0,13-11.11c55.18-232.51,55.31-391.11,41.8-491.37C1937.2,1571,2009,1403.75,1894.76,1364.17Z" transform="translate(506.62 -467.88)"/><path class="cls-18" d="M1605.76,1222.29s-11.48,121.38-21.59,157.28a12.28,12.28,0,0,0,5.78,14c17.16,9.8,58.3,25.79,114.58-1.79a25.55,25.55,0,0,0,14.18-24l-5-117.3Z" transform="translate(506.62 -467.88)"/><path class="cls-19" d="M1716.22,1067s36.72,84.35,39.19,128.62,12,73-39.19,81.91-94.31-16.58-117.67-60.68c0,0-36.6-67.95-28.39-95.78S1716.22,1067,1716.22,1067Z" transform="translate(506.62 -467.88)"/><path class="cls-3" d="M1616,1185.14l2.92-1.28a7,7,0,0,0,3.43-9.65c-7.22-14-21.29-45.91-3.11-53.36,23.43-9.61,116.23-28.54,136.25-61.47,19.24-31.64,2.19-72.5-23.43-84.11a3.53,3.53,0,0,0-4.62,1.5l-2.13,4a3.48,3.48,0,0,1-6.42-.66h0a3.46,3.46,0,0,0-6.26-.9c-6.16,9.86-22.77,25.83-67.21,34-63.15,11.65-104.9,37.21-105.94,80.85a3.48,3.48,0,0,1-5.38,2.87c-4.66-2.85-12.13-4.18-22.1,4.21-17.34,14.58-10.24,52.41,27.78,83.52a3.47,3.47,0,0,1-.17,5.58c-6.89,4.48-17.17,15.16,9.46,29.39,27.53,14.72,48.1,13.51,56,12.21a3.47,3.47,0,0,0,2.81-4.19l-8.45-38.35a3.48,3.48,0,0,1,3.4-4.23Z" transform="translate(506.62 -467.88)"/><path class="cls-20" d="M1617.63,1193.24s-14-53.88-38.16-38.78,12.54,60.37,32,62.39Z" transform="translate(506.62 -467.88)"/><path class="cls-21" d="M1616.6,2011.72l165.7-3.6s-144.49-40.85-153.46-29.72c0,0-89.56-58.85-138.63-141.63a499.44,499.44,0,0,0-48.65,92.06C1485.56,1954.66,1543.34,1999.53,1616.6,2011.72Z" transform="translate(506.62 -467.88)"/><path class="cls-22" d="M1611.93,1983s-3.42,66,83.24,56.43c47.1-5.21,123.14-49.12,123.14-49.12S1620.12,1989.81,1611.93,1983Z" transform="translate(506.62 -467.88)"/><path class="cls-3" d="M1653.71,1999.44l.78,0,339.7-.37a15,15,0,1,0,0-30.09l-339.71.37a15,15,0,0,0-.74,30.07Z" transform="translate(506.62 -467.88)"/><path class="cls-3" d="M2299.58,1694.26H2016.67a54,54,0,0,0-48.77,30.6l-130.79,274.4h351.58a32.78,32.78,0,0,0,30.48-20.51l101.42-253.91C2326.45,1710.16,2315.52,1694.26,2299.58,1694.26Z" transform="translate(506.62 -467.88)"/><path class="cls-1" d="M2100.26,1835c-6.13,18.84-1.6,37.15,10.12,40.88s26.19-8.52,32.32-27.37,1.6-37.15-10.12-40.88S2106.39,1816.11,2100.26,1835Z" transform="translate(506.62 -467.88)"/><path class="cls-23" d="M2239,1550.5c-131.91,5.47-195.28-91-253-147.51-76.16-74.58-156.78-44.2-156.78-44.2l61.28,200c119.08,139.29,267.21,105.17,357.27,73.91A166.32,166.32,0,0,0,2239,1550.5Z" transform="translate(506.62 -467.88)"/><path class="cls-24" d="M2429.78,1492.73l-45.54,18.52c-55,25.87-103,37.49-145.26,39.25a166.32,166.32,0,0,1,8.8,82.23c57.32-19.9,94.86-47.16,94.86-47.16C2446.43,1537.94,2429.78,1492.73,2429.78,1492.73Z" transform="translate(506.62 -467.88)"/><path class="cls-25" d="M2550.06,1567.08a32,32,0,0,0-16.37-22.32l-83.58-44.56s-.11-11.34,20.49-16.83,18.37-28.13,18.37-28.13-28.35,9.42-70,24.7c-23.83,8.74-38.65,27.11-47,41.24l19.29,32c52.11,22,106.26,31,161.9,30.47Z" transform="translate(506.62 -467.88)"/><path class="cls-26" d="M1845.52,1418.17s27,42.54,40.29,142.89Z" transform="translate(506.62 -467.88)"/><path class="cls-27" d="M715.55,723.43a1.5,1.5,0,0,0,0-3,1.5,1.5,0,0,0,0,3Z" transform="translate(506.62 -467.88)"/><path class="cls-27" d="M-505.17,840.22a1.5,1.5,0,0,0,0-3,1.5,1.5,0,0,0,0,3Z" transform="translate(506.62 -467.88)"/></g></svg>