<svg version="1.1" id="Icons" xmlns="http://www.w3.org/2000/svg" xmlns:xlink="http://www.w3.org/1999/xlink" x="0px" y="0px" viewBox="0 0 32 32" style="enable-background:new 0 0 32 32;" xml:space="preserve">
<style type="text/css">
	.st0{fill:none;stroke:#000000;stroke-width:2;stroke-linecap:round;stroke-linejoin:round;stroke-miterlimit:10;}
</style>
<path class="st0" d="M11,30H9c-1.1,0-2-0.9-2-2V4c0-1.1,0.9-2,2-2h2c1.1,0,2,0.9,2,2v24C13,29.1,12.1,30,11,30z" id="id_103" style="stroke: rgb(12, 74, 110);"></path>
<path class="st0" d="M25,26l-3,4l-3-4V4c0-1.1,0.9-2,2-2h2c1.1,0,2,0.9,2,2V26z" id="id_104" style="stroke: rgb(2, 132, 199);"></path>
<line class="st0" x1="10" y1="6" x2="7" y2="6" id="id_105" style="stroke: rgb(12, 74, 110);"></line>
<line class="st0" x1="10" y1="26" x2="7" y2="26" id="id_106" style="stroke: rgb(12, 74, 110);"></line>
<line class="st0" x1="10" y1="16" x2="7" y2="16" id="id_107" style="stroke: rgb(12, 74, 110);"></line>
<line class="st0" x1="9" y1="11" x2="7" y2="11" id="id_108" style="stroke: rgb(12, 74, 110);"></line>
<line class="st0" x1="9" y1="21" x2="7" y2="21" id="id_109" style="stroke: rgb(12, 74, 110);"></line>
<line class="st0" x1="19" y1="7" x2="25" y2="7" id="id_110" style="stroke: rgb(2, 132, 199);"></line>
</svg>