<svg id="Layer_1" data-name="Layer 1" xmlns="http://www.w3.org/2000/svg" viewBox="0 0 48 48"><path d="M43.1,11.08,42,15.17V31a2.006,2.006,0,0,1-2,2H8a2.006,2.006,0,0,1-2-2V15a1.978,1.978,0,0,1,.46-1.27,5.438,5.438,0,0,1-.23-.68,9.152,9.152,0,0,1-.31-2.6A5.009,5.009,0,0,0,3,15V34a5,5,0,0,0,5,5H19v3H11.67A3.666,3.666,0,0,0,8,45.67,1.336,1.336,0,0,0,9.33,47H38.67A1.336,1.336,0,0,0,40,45.67,3.666,3.666,0,0,0,36.33,42H29V39H40a5,5,0,0,0,5-5V15A4.969,4.969,0,0,0,43.1,11.08ZM24,37.5A1.5,1.5,0,1,1,25.5,36,1.5,1.5,0,0,1,24,37.5Z" id="id_101" style="fill: rgb(12, 74, 110);"></path><path d="M11.805,15.544a3.352,3.352,0,0,0-.973,1.079,3.4,3.4,0,0,0-.288,2.661l.236.777L17.3,18.314l-.182-.787c-.006-.024-.013-.049-.02-.073l-.009-.031a3.382,3.382,0,0,0-2.893-2.51,4.059,4.059,0,0,0,1.694-4.455c-1.105-4.125-5.769-6.279-5.968-6.369a1,1,0,0,0-1.378,1.17,5.485,5.485,0,0,1-.215,2.619,8.925,8.925,0,0,0-.166,4.65A4.068,4.068,0,0,0,11.805,15.544Z" id="id_102" style="fill: rgb(2, 132, 199);"></path><path d="M17.747,20.264l-6.385,1.711L12.89,27H10a1,1,0,0,0,0,2H38a1,1,0,0,0,0-2H36.759L42.17,6.807a1,1,0,0,0-.707-1.224l-5.8-1.553a1,1,0,0,0-1.224.707l-.518,1.932,1.932.517a1,1,0,0,1,.707,1.225h0a1,1,0,0,1-1.225.707L33.407,8.6l-.776,2.9,1.932.518a1,1,0,0,1-.518,1.932l-1.932-.518-.776,2.9,1.932.517a1,1,0,0,1-.518,1.932l-1.932-.517-.776,2.9,1.931.518a1,1,0,1,1-.517,1.932l-1.932-.518-.776,2.9,1.931.518a.988.988,0,0,1,.618.5H28V11.084a5.966,5.966,0,0,0-.161-1.3A24.941,24.941,0,0,1,24,10.09a24.941,24.941,0,0,1-3.839-.31,5.966,5.966,0,0,0-.161,1.3V27h-.7Z" id="id_103" style="fill: rgb(2, 132, 199);"></path><path d="M27.21,7.861l-2.271-6.2a1,1,0,0,0-1.878,0L20.79,7.861A23.011,23.011,0,0,0,27.21,7.861Z" id="id_104" style="fill: rgb(2, 132, 199);"></path></svg>