<svg xmlns="http://www.w3.org/2000/svg" xmlns:xlink="http://www.w3.org/1999/xlink" viewBox="0 0 2802.89 2800"><defs><style>.cls-1{isolation:isolate;}.cls-2,.cls-42{fill:#90b4ce;}.cls-2,.cls-6{opacity:0.3;}.cls-3,.cls-33{fill:#3da9fc;}.cls-3,.cls-4{stroke:#020202;stroke-miterlimit:10;}.cls-10,.cls-11,.cls-4,.cls-7,.cls-8,.cls-9{fill:#fff;}.cls-4{mix-blend-mode:soft-light;}.cls-5{fill:#094067;}.cls-7{opacity:0.42;}.cls-8{opacity:0.58;}.cls-9{opacity:0.28;}.cls-10{opacity:0.47;}.cls-12{fill:url(#linear-gradient);}.cls-13{fill:url(#linear-gradient-2);}.cls-14{fill:url(#linear-gradient-3);}.cls-15{fill:url(#linear-gradient-4);}.cls-16{fill:url(#linear-gradient-5);}.cls-17{fill:url(#linear-gradient-6);}.cls-18{fill:url(#linear-gradient-7);}.cls-19{fill:url(#röd);}.cls-20{fill:url(#linear-gradient-8);}.cls-21{fill:url(#linear-gradient-9);}.cls-22{fill:url(#linear-gradient-10);}.cls-23{fill:url(#linear-gradient-11);}.cls-24{fill:url(#linear-gradient-12);}.cls-25{fill:url(#linear-gradient-13);}.cls-26{fill:url(#linear-gradient-14);}.cls-27{fill:url(#New_Gradient_Swatch_1);}.cls-28{fill:#fe7366;}.cls-29{fill:url(#linear-gradient-15);}.cls-30{fill:url(#linear-gradient-16);}.cls-31{fill:url(#linear-gradient-17);}.cls-32{fill:url(#linear-gradient-18);}.cls-34{fill:url(#linear-gradient-19);}.cls-35{fill:url(#linear-gradient-20);}.cls-36{fill:#5f6c7b;}.cls-37{fill:url(#linear-gradient-21);}.cls-38{fill:url(#linear-gradient-22);}.cls-39{fill:url(#New_Gradient_Swatch_1-2);}.cls-40{fill:url(#linear-gradient-23);}.cls-41{fill:#ef4565;}</style><linearGradient id="linear-gradient" x1="-3800.09" y1="2388.48" x2="-3541.44" y2="1759.89" gradientTransform="matrix(-1, -0.02, -0.02, 1, -2888.78, 19.48)" gradientUnits="userSpaceOnUse"><stop offset="0" stop-color="#2b3582"/><stop offset="1" stop-color="#150e42"/></linearGradient><linearGradient id="linear-gradient-2" x1="-4044.9" y1="1848.62" x2="-3822.22" y2="2351.42" gradientTransform="matrix(-1, 0, 0, 1, -2948.33, 0)" gradientUnits="userSpaceOnUse"><stop offset="0" stop-color="#f9b776"/><stop offset="1" stop-color="#f47960"/></linearGradient><linearGradient id="linear-gradient-3" x1="-4040.94" y1="1846.87" x2="-3818.26" y2="2349.67" xlink:href="#linear-gradient-2"/><linearGradient id="linear-gradient-4" x1="-3506.34" y1="3207.74" x2="-3438.34" y2="3207.74" gradientTransform="matrix(-1, 0, 0, 1, -2948.33, 0)" xlink:href="#linear-gradient"/><linearGradient id="linear-gradient-5" x1="-3792.82" y1="3456.25" x2="-3695.26" y2="2315.92" xlink:href="#linear-gradient-2"/><linearGradient id="linear-gradient-6" x1="-3747.1" y1="3176.51" x2="-3637.4" y2="3176.51" gradientTransform="matrix(-1, 0, 0, 1, -2948.33, 0)" xlink:href="#linear-gradient"/><linearGradient id="linear-gradient-7" x1="-3596.56" y1="3473.21" x2="-3498.97" y2="2332.59" xlink:href="#linear-gradient-2"/><linearGradient id="röd" x1="761.96" y1="2331.71" x2="950.45" y2="2331.71" gradientUnits="userSpaceOnUse"><stop offset="0" stop-color="#e1473d"/><stop offset="1" stop-color="#e9605a"/></linearGradient><linearGradient id="linear-gradient-8" x1="-3667.65" y1="2574.88" x2="-4192.51" y2="3282.65" gradientTransform="matrix(-1, 0, 0, 1, -2948.33, 0)" gradientUnits="userSpaceOnUse"><stop offset="0" stop-color="#fe7062"/><stop offset="1" stop-color="#ff928e"/></linearGradient><linearGradient id="linear-gradient-9" x1="-3803.52" y1="2332.23" x2="-3785.2" y2="2198.15" xlink:href="#linear-gradient-2"/><linearGradient id="linear-gradient-10" x1="-3900.4" y1="2018.72" x2="-3917.64" y2="2442.87" xlink:href="#linear-gradient-2"/><linearGradient id="linear-gradient-11" x1="-4092.96" y1="2015.07" x2="-4109.02" y2="2410.21" xlink:href="#linear-gradient-2"/><linearGradient id="linear-gradient-12" x1="-11881.48" y1="4648.63" x2="-11758.75" y2="4789.75" gradientTransform="matrix(-0.97, 0.26, 0.26, 0.97, -11805.31, 649.04)" xlink:href="#linear-gradient-2"/><linearGradient id="linear-gradient-13" x1="-3929.48" y1="2342.52" x2="-3668.53" y2="1708.33" xlink:href="#linear-gradient"/><linearGradient id="linear-gradient-14" x1="-11850.82" y1="4621.96" x2="-11728.09" y2="4763.07" gradientTransform="matrix(-0.97, 0.26, 0.26, 0.97, -11805.31, 649.04)" xlink:href="#linear-gradient-2"/><linearGradient id="New_Gradient_Swatch_1" x1="2869.05" y1="1080.56" x2="2782.76" y2="1289.16" gradientTransform="translate(126.98 357.24) rotate(9.25)" xlink:href="#linear-gradient"/><linearGradient id="linear-gradient-15" x1="2503.52" y1="2213.52" x2="2763.86" y2="2842.4" gradientTransform="matrix(1, 0, 0, 1, 0, 0)" xlink:href="#linear-gradient-2"/><linearGradient id="linear-gradient-16" x1="-7132.11" y1="2212.17" x2="-6871.77" y2="2841.05" gradientTransform="matrix(-1, 0, 0, 1, -4167.07, 0)" xlink:href="#linear-gradient-2"/><linearGradient id="linear-gradient-17" x1="2281.47" y1="1839.68" x2="2267.92" y2="2388.23" gradientTransform="matrix(1, 0, 0, 1, 0, 0)" xlink:href="#linear-gradient"/><linearGradient id="linear-gradient-18" x1="2731.58" y1="2363.01" x2="2746.45" y2="2022.61" gradientUnits="userSpaceOnUse"><stop offset="0" stop-color="#53d8ff"/><stop offset="1" stop-color="#3840f7"/></linearGradient><linearGradient id="linear-gradient-19" x1="2984.92" y1="2368.07" x2="2834.75" y2="2774.83" gradientTransform="matrix(1, 0, 0, 1, 0, 0)" xlink:href="#linear-gradient-2"/><linearGradient id="linear-gradient-20" x1="2684.05" y1="2245.5" x2="2533.8" y2="2652.47" gradientTransform="matrix(1, 0, 0, 1, 0, 0)" xlink:href="#linear-gradient-2"/><linearGradient id="linear-gradient-21" x1="2732.06" y1="2265.45" x2="2728.59" y2="1964.06" gradientTransform="matrix(1, 0, 0, 1, 0, 0)" xlink:href="#linear-gradient-2"/><linearGradient id="linear-gradient-22" x1="2833.83" y1="1283.37" x2="2843.85" y2="1039.69" gradientTransform="translate(126.98 357.24) rotate(9.25)" xlink:href="#linear-gradient-2"/><linearGradient id="New_Gradient_Swatch_1-2" x1="2863.76" y1="1078.24" x2="2778.24" y2="1285" gradientTransform="translate(126.98 357.24) rotate(9.25)" xlink:href="#linear-gradient"/><linearGradient id="linear-gradient-23" x1="2698.44" y1="1963.85" x2="2714.16" y2="1581.97" gradientTransform="translate(31.26 60.87) rotate(1.75)" xlink:href="#linear-gradient-2"/></defs><g class="cls-1"><g id="Illustration"><path class="cls-2" d="M2906.06,2843.18c-56.8,59.79-110.55,98.36-153,128.82-499.14,358.14-1089.75,253.74-1215.27,228.25-185.35-37.65-543.64-110.42-802.68-415C343.2,2324.34,404.23,1598.26,708.21,1119c55.6-87.68,349.32-574.27,946.29-652.31,361.28-47.23,782.42,48,1087.39,303.53C3382.07,1306.53,3336.49,2390,2906.06,2843.18Z" transform="translate(-453.3 -455)"/><path class="cls-3" d="M548.61,639.93c-1.56-11.23,14.58-17.09,23.33-8.53,88.82,86.94,297.9,341.94,202.17,744.42C654,1880.79,760,2079.08,903,2207.36c0,0-206-73.32-321.05-275.22C299.48,1436.42,576.21,839.59,548.61,639.93Z" transform="translate(-453.3 -455)"/><path class="cls-4" d="M606.79,806.61c6.69,58.09,12.06,116.24,15,174.41q4.89,87.24,3.61,174.4c-1.13,58.06-3.52,116.06-8.75,173.81-4.93,57.79-12.73,115.25-20.8,172.92C588.13,1559.83,580,1617.9,578.75,1677s5.48,119.27,24.77,177c4.83,14.38,10,28.75,16,42.74,5.77,14.09,12.26,28,19,41.76a627.91,627.91,0,0,0,47.5,80.1c36.15,51.43,81.18,98.26,131.79,139.07,5.33,4.3,13.55,4.13,18.37-.36s4.42-11.37-.64-15.69l0,0c-12-10.22-23.85-20.54-35.14-31.27-5.74-5.29-11.21-10.79-16.79-16.19-5.35-5.58-10.94-11-16.08-16.69a625.75,625.75,0,0,1-57.3-71.09c-34.45-49.43-60.68-103.37-79.22-158.47a507.34,507.34,0,0,1-19.54-84.14,559.91,559.91,0,0,1-5.2-85.75c.71-57.43,8.2-115,15.41-172.71s13.82-115.86,17.74-174.17q3.07-43.71,4.33-87.54c.51-14.6.7-29.21.92-43.82q.09-21.93-.15-43.85-1.23-87.7-8.71-175.3C630.51,922.25,623.4,864,613.71,806a3.54,3.54,0,0,0-4-2.65A3.07,3.07,0,0,0,606.79,806.61Z" transform="translate(-453.3 -455)"/><path class="cls-3" d="M618.77,1867a24.3,24.3,0,0,1-39-10.45c-31-90-95.76-352.48,77.84-631.61,146.6-235.71,203.69-377.46,225.15-443.6,4.54-14,24.3-14,29-.1C963.11,935.09,1088.21,1453.87,618.77,1867Z" transform="translate(-453.3 -455)"/><path class="cls-4" d="M598.21,1855.85a6.3,6.3,0,0,1-1.3,0,6.72,6.72,0,0,1-6-7.42c.45-4.2,47.92-423.19,236.95-760.15a6.74,6.74,0,1,1,11.75,6.6c-187.65,334.5-234.85,750.84-235.31,755A6.73,6.73,0,0,1,598.21,1855.85Z" transform="translate(-453.3 -455)"/><path class="cls-5" d="M3147.77,2620.18a45.31,45.31,0,0,1-45.2,45.15h-2444a45.3,45.3,0,0,1-45.19-45.15l-20.34-1404.5c0-24.83,29.26-73.31,82.88-69.67l2388.54-61.81a113.9,113.9,0,0,1,116.86,116.49Z" transform="translate(-453.3 -455)"/><path class="cls-5" d="M3103.15,2576.86a42.89,42.89,0,0,1-42.76,42.76H717.52a42.89,42.89,0,0,1-42.76-42.76l-19.19-1275c2.26-76.72,69.53-104.3,110.31-102.67l2289.26-61.42a79.95,79.95,0,0,1,82.06,81.91Z" transform="translate(-453.3 -455)"/><path class="cls-5" d="M700.08,1968.9a4,4,0,0,1-4-4l-1.52-103.41a4,4,0,1,1,8.07-.11l1.52,103.4a4,4,0,0,1-4,4.09Z" transform="translate(-453.3 -455)"/><path class="cls-5" d="M696.36,1715.51a4,4,0,0,1-4-4l-5.82-396c.12-26.62,8.33-47.89,24.4-63.29,29.2-28,74.84-26.57,76.77-26.49l731-19.62a4,4,0,0,1,4.14,3.92,4,4,0,0,1-3.93,4.15l-731.24,19.61c-2.08-.08-44.42-1.38-71.17,24.26-14.43,13.83-21.8,33.15-21.91,57.42l5.82,396a4,4,0,0,1-4,4.09Z" transform="translate(-453.3 -455)"/><path class="cls-5" d="M3196.42,2781.92h-2672c-32.87,0-59.77-27.77-59.77-61.7h0c0-33.94,26.9-61.71,59.77-61.71h2672c32.88,0,59.78,27.77,59.78,61.71h0C3256.2,2754.15,3229.3,2781.92,3196.42,2781.92Z" transform="translate(-453.3 -455)"/><g class="cls-6"><path class="cls-7" d="M3026.61,1511.1,764.79,1526.43c-22.53.15-40.9-13.77-40.9-31v-194c0-16.66,17.23-30.35,39-31l2261.82-65.23c23-.66,42.07,13.4,42.07,31v243.9C3066.79,1497.12,3048.86,1511,3026.61,1511.1Z" transform="translate(-453.3 -455)"/><path class="cls-8" d="M1050,1140.1H1828.1a20.56,20.56,0,0,1,20.56,20.56v751.88a12.61,12.61,0,0,1-12.61,12.61H1050a28.17,28.17,0,0,1-28.17-28.17V1168.26A28.17,28.17,0,0,1,1050,1140.1Z"/><path class="cls-9" d="M2312.64,2512.84a46.24,46.24,0,0,1-45.89,43.81l-1524.82,9.64a34.4,34.4,0,0,1-34.12-34.4v-55a47.57,47.57,0,0,1,47.58-47.57H2297.71a18.36,18.36,0,0,1,18.37,18.37Z" transform="translate(-453.3 -455)"/><rect class="cls-10" x="254.51" y="1117.67" width="719.31" height="789.37" rx="25.43"/><path class="cls-7" d="M1943.9,1110.07h648.76a10,10,0,0,1,10,10V2098.9a13.66,13.66,0,0,1-13.66,13.66H1917a13.43,13.43,0,0,1-13.43-13.43v-948.7A40.37,40.37,0,0,1,1943.9,1110.07Z"/></g><path class="cls-3" d="M1840.13,1533.84l-737.95-6.62a25.94,25.94,0,0,0-26.17,26.09l3.23,566.27a25.92,25.92,0,0,0,26.68,25.78c133.42-4,725.8-21.53,751.95-20.44,25.85,1.08,11.81-453.82,8-566.05A25.93,25.93,0,0,0,1840.13,1533.84Z" transform="translate(-453.3 -455)"/><path class="cls-11" d="M1105.18,2124.1a4.66,4.66,0,0,1-4.67-4.64l-3.23-566.28a4.66,4.66,0,0,1,4.69-4.69l738,6.62a4.64,4.64,0,0,1,4.62,4.49c9.54,277.49,9.73,490.52.48,542.71l-.25,1.37-1.39,0c-98.22,1.38-632.09,17.24-738.12,20.4ZM1102,1551.86a1.3,1.3,0,0,0-.93.38,1.24,1.24,0,0,0-.38.92l3.24,566.28a1.27,1.27,0,0,0,1.25,1.3l.1,1.68,0-1.69c105.54-3.15,635-18.87,736.77-20.38,9-54.25,8.7-265.73-.75-540.64a1.29,1.29,0,0,0-1.29-1.23Z" transform="translate(-453.3 -455)"/><path class="cls-11" d="M1751.07,2051.21H1267.32a19.47,19.47,0,0,1-16.78-29.34l191.51-325.57a19.47,19.47,0,0,1,34.5,1.78L1569,1900.71a19.47,19.47,0,0,0,30.87,6.27l37.41-34.29a19.46,19.46,0,0,1,29.14,3.23l100.62,144.7A19.48,19.48,0,0,1,1751.07,2051.21Z" transform="translate(-453.3 -455)"/><circle class="cls-11" cx="1273.9" cy="1686.46" r="69.54" transform="translate(-1292.4 1278.81) rotate(-54.22)"/><path class="cls-12" d="M591.93,2219.87c18.88-69.84,77.22-127.21,142.23-141.71,12-2.66,18.87-14.83,16.06-26.75l-.06-.24c-9.42-40.62,16.62-73,55.88-82.08s76.89,8.48,86.31,49.1c6.35,27.41-1.79,58.24-19.82,78.21-7.42,8.23-8,20.51-.82,28.94,39.61,46.41,55.73,117.25,38.6,180.61-25.24,93.33-113,135-200.91,111.25S566.7,2313.2,591.93,2219.87Z" transform="translate(-453.3 -455)"/><path class="cls-11" d="M619.27,2308.94l1.71-1.2c-15.74-22.34-17.76-54.59-5.27-84.15,9.92-23.49,27.66-45,55.85-67.58,10.5-8.43,21.64-16.43,32.41-24.16,13-9.32,26.37-18.95,38.8-29.42,11.17-9.42,22.93-21.11,25.4-36.4,1.23-7.62.08-15.74-1-23.59-1.74-12.29-3.39-23.9,3.81-32.79l-1.62-1.31c-7.77,9.59-6,22.2-4.26,34.39,1.09,7.7,2.22,15.66,1,23-2.36,14.62-13.8,26-24.69,35.13-12.36,10.42-25.74,20-38.67,29.32-10.79,7.75-22,15.77-32.5,24.23-28.47,22.85-46.41,44.58-56.47,68.39C601,2253,603.12,2286,619.27,2308.94Z" transform="translate(-453.3 -455)"/><path class="cls-11" d="M661.07,2322.42l2-.71c-10.7-29.62-7.57-66,8.61-99.87,16-33.54,42.25-60.89,63.29-81l-1.44-1.5c-21.17,20.2-47.55,47.73-63.74,81.59C653.34,2255.29,650.17,2292.28,661.07,2322.42Z" transform="translate(-453.3 -455)"/><path class="cls-13" d="M1082.68,1939.29l.72-24.12-25.21-50.06a32.62,32.62,0,0,1-.1-29.14l28.56-57.66s16.5,125.16,20.84,135.57-11.77,29.09-11.77,29.09Z" transform="translate(-453.3 -455)"/><path class="cls-14" d="M1083.4,1915.17s-76.68,209-207.34,274.38c0,0,43.49,71,66.18,75.26,0,0,139.58-178.65,153.81-325Z" transform="translate(-453.3 -455)"/><path class="cls-15" d="M557.93,3172.62l-3.86,31.71c-4,15.06-23.41,53-48.31,50.55-15.31-1.52-17.16-46.27-15-53,3.89-12.24,11-30.61,21.26-41.42h35.17A10.84,10.84,0,0,1,557.93,3172.62Z" transform="translate(-453.3 -455)"/><path class="cls-16" d="M833.37,2801.25l5.94,34.92s-19.88,201.34-23.42,281.88a63.19,63.19,0,0,0,9.34,35.87l34.57,56.13L772,3158.21l-1.75-10.72,14.39-19.77-18.84-225.56a69.2,69.2,0,0,1,7.87-38.27l18.17-34.14Z" transform="translate(-453.3 -455)"/><path class="cls-17" d="M865.58,3218.18h-28a16.88,16.88,0,0,1-13.4-6.57c-8.74-11.36-26.84-33.51-35.5-34.09-11.65-.78-10.16,40.66-10.16,40.66H772l-8.27-51.49a30.49,30.49,0,0,1,16-31.86h0s2.67,19.71,17.11,28.42,58.79,39.93,58.79,39.93a39.85,39.85,0,0,1,11.39.3C875.81,3205.08,874.57,3218.18,865.58,3218.18Z" transform="translate(-453.3 -455)"/><path class="cls-18" d="M713.05,2817.83s-116.45,220.9-135,271.33-25,92.51-25.24,96.49c-.39,6.23-8.13,12.2-29.48,12.2-11,0-16.41-4.42-19.05-8.69a12.45,12.45,0,0,1-.47-12c6.74-13.63,28.11-57.2,36-77,9.45-23.59,29.79-130.5,40.94-167.68s23.75-77.49,72.31-114.64C653.13,2817.83,686.47,2785.19,713.05,2817.83Z" transform="translate(-453.3 -455)"/><path class="cls-19" d="M786.62,2455.89c17-72.27-.11-126.71-18.13-160.28a54.17,54.17,0,0,1,22.69-73.9c42.14-21.91,84.88-32.16,84.88-32.16s83.48,61,73.58,108.8c-5.81,28-58.68,167.7-58.68,167.7S842.07,2489.19,786.62,2455.89Z" transform="translate(-453.3 -455)"/><path class="cls-20" d="M720,2518.91c12.22-36.83,66.6-63,66.6-63,55.45,33.3,104.34,10.16,104.34,10.16s11,41.91,3.39,80.86-55,289.26-55,289.26c-74.81,15.16-189.87-15.25-189.87-15.25C697.09,2736.31,707.79,2555.73,720,2518.91Z" transform="translate(-453.3 -455)"/><path class="cls-21" d="M821.49,2105.43l-24.43,109.7c-2.33,9.67,6.47,8.08,16.24,6.24,16-3,36.62-9.23,43.51-21.67a11.5,11.5,0,0,0,1.25-4.14l10.5-76.07a13.67,13.67,0,0,0-8-14.36l-20.25-9A13.67,13.67,0,0,0,821.49,2105.43Z" transform="translate(-453.3 -455)"/><path class="cls-22" d="M1126.74,2033s-64.28,223.29-323.48,202.31a30,30,0,0,0-32.44,27.53l-.7,9a40,40,0,0,0,41.81,43.07c86.21-4.36,271.35-38.22,334.81-243.06Z" transform="translate(-453.3 -455)"/><path class="cls-23" d="M1146.74,2071.79s12.35-36.35,15.46-59.06-8.32-73.72-18.14-88.06-11.46,20.81-15.87,37.33,3.06,40.09,3.06,40.09l-4.51,30.89Z" transform="translate(-453.3 -455)"/><path class="cls-24" d="M871.56,2014.93s61.76,90,23.35,115-82.36-38.86-82.36-38.86-13.8-48.87,1.9-65.06S871.56,2014.93,871.56,2014.93Z" transform="translate(-453.3 -455)"/><path class="cls-25" d="M845.66,1993.11s26.86,6.9,30.41,19.18-38.71,22.82-50.5,23.15l-10.43,49.09s-27.19-46.88-15.57-73.44S845.66,1993.11,845.66,1993.11Z" transform="translate(-453.3 -455)"/><path class="cls-26" d="M825,2084.8s-24.15-29.06-34.32-10.61,21.61,33.06,32.87,24.11Z" transform="translate(-453.3 -455)"/><circle class="cls-11" cx="1745.09" cy="1638.38" r="278.88"/><path class="cls-5" d="M1948.51,2078.59l63.62-33.17v14.13a5.62,5.62,0,0,1-.8,2.94,6.62,6.62,0,0,1-2.65,2.29l-29.16,14.94a26,26,0,0,1-3.9,1.64c-1.36.46-2.82.88-4.37,1.25,1.55.37,3,.79,4.37,1.24a27.17,27.17,0,0,1,3.9,1.65l29.16,15a6.54,6.54,0,0,1,2.65,2.29,5.58,5.58,0,0,1,.8,2.93v14.14l-63.62-33.25Z" transform="translate(-453.3 -455)"/><path class="cls-5" d="M2041.13,2136.75V2017.38H2061v45.87a42,42,0,0,1,10.6-7.39,30.8,30.8,0,0,1,13.58-2.81,29.51,29.51,0,0,1,12,2.29,23.64,23.64,0,0,1,8.71,6.42,28.21,28.21,0,0,1,5.3,9.89,41.75,41.75,0,0,1,1.81,12.65v52.45H2093.1V2084.3q0-7.56-3.5-11.69t-10.48-4.14a20.7,20.7,0,0,0-9.64,2.33,34.43,34.43,0,0,0-8.51,6.35v59.6Z" transform="translate(-453.3 -455)"/><path class="cls-5" d="M2159.53,2138q-10.68,0-16.47-6.06t-5.78-16.75v-46h-8.35A3.81,3.81,0,0,1,2125,2065v-7.87l13.25-2.17,4.18-22.49a4,4,0,0,1,1.49-2.5,4.75,4.75,0,0,1,2.93-.88h10.28v26h21.69v14.14h-21.69v44.66a8.73,8.73,0,0,0,1.93,6,6.52,6.52,0,0,0,5.14,2.17,9.45,9.45,0,0,0,3.09-.44,18.33,18.33,0,0,0,2.17-.93c.62-.32,1.16-.62,1.65-.92a2.77,2.77,0,0,1,1.44-.44,2.32,2.32,0,0,1,1.45.44,7.09,7.09,0,0,1,1.2,1.33l5.95,9.63a30.26,30.26,0,0,1-10,5.47A37.12,37.12,0,0,1,2159.53,2138Z" transform="translate(-453.3 -455)"/><path class="cls-5" d="M2194.63,2136.75v-82.41h12.13a4.87,4.87,0,0,1,5.06,3.61l1.28,6.1a47,47,0,0,1,4.54-4.41,29.62,29.62,0,0,1,5.06-3.46,28.28,28.28,0,0,1,5.79-2.29,25.82,25.82,0,0,1,6.79-.84q7.78,0,12.81,4.22a25.42,25.42,0,0,1,7.51,11.2,25.1,25.1,0,0,1,4.82-7,26.76,26.76,0,0,1,6.34-4.78,29.51,29.51,0,0,1,7.35-2.73,35.27,35.27,0,0,1,7.83-.88,32.71,32.71,0,0,1,12.13,2.09,23.29,23.29,0,0,1,8.92,6.1,27,27,0,0,1,5.5,9.8,42.65,42.65,0,0,1,1.89,13.26v52.45h-19.84V2084.3q0-7.87-3.45-11.85t-10.13-4a15,15,0,0,0-5.66,1.05,13.42,13.42,0,0,0-4.58,3,13.77,13.77,0,0,0-3.09,4.94,19.22,19.22,0,0,0-1.12,6.83v52.45h-19.92V2084.3q0-8.28-3.34-12.05t-9.84-3.78a15.86,15.86,0,0,0-8,2.13,27,27,0,0,0-7,5.82v60.33Z" transform="translate(-453.3 -455)"/><path class="cls-5" d="M2351,2017.38v119.37h-19.84V2017.38Z" transform="translate(-453.3 -455)"/><path class="cls-5" d="M2381.23,2119.88v-14.14a5.58,5.58,0,0,1,.8-2.93,6.54,6.54,0,0,1,2.65-2.29l29.16-15a38.21,38.21,0,0,1,8.27-2.89c-1.55-.37-3-.79-4.37-1.25a26,26,0,0,1-3.9-1.64l-29.16-14.94a6.62,6.62,0,0,1-2.65-2.29,5.62,5.62,0,0,1-.8-2.94v-14.13l63.62,33.17v8Z" transform="translate(-453.3 -455)"/><circle class="cls-11" cx="2501.12" cy="1140.1" r="215.62"/><path class="cls-5" d="M2823.49,1635l-46.5-28.76v-10.29l46.5-28.64v14.85l-32.12,18.93,32.12,19.07Z" transform="translate(-453.3 -455)"/><path class="cls-5" d="M2904.44,1566.64q-7.72,0-12.17,9t-4.46,25.14q0,33.51,17.49,33.51,7.65,0,16-4.88v16q-7.07,4.68-18.08,4.68-16.29,0-25-13t-8.74-36.44q0-23.49,9-36.62t25-13.12a35,35,0,0,1,10.13,1.45,40.69,40.69,0,0,1,10.39,5.08l-5.94,14.57a53.12,53.12,0,0,0-6.33-3.72A16.17,16.17,0,0,0,2904.44,1566.64Z" transform="translate(-453.3 -455)"/><path class="cls-5" d="M2978.91,1622.18q0,13.53-6.82,20.72t-19.7,7.18q-12.6,0-21.44-4.94v-17.75q10.83,7.06,19.86,7.06,5.14,0,7.75-2.84a10.94,10.94,0,0,0,2.61-7.71,14.07,14.07,0,0,0-3.1-8.81q-3.11-4-10.23-8.87a45.52,45.52,0,0,1-9.4-8.22,29.75,29.75,0,0,1-5-8.8,33.8,33.8,0,0,1-1.74-11.35q0-12.4,6.89-19.66t18.5-7.25a40.47,40.47,0,0,1,21.31,6.2l-5.94,14.38a56.86,56.86,0,0,0-6.63-3.3,19,19,0,0,0-7.42-1.45,8.15,8.15,0,0,0-6.69,2.87,12,12,0,0,0-2.35,7.81,13.49,13.49,0,0,0,2.81,8.51q2.8,3.63,9.8,8.25,9.42,6.33,13.15,12.93A30,30,0,0,1,2978.91,1622.18Z" transform="translate(-453.3 -455)"/><path class="cls-5" d="M3034.72,1622.18q0,13.53-6.83,20.72t-19.69,7.18q-12.6,0-21.44-4.94v-17.75q10.83,7.06,19.86,7.06,5.15,0,7.75-2.84a10.94,10.94,0,0,0,2.61-7.71,14.07,14.07,0,0,0-3.1-8.81q-3.11-4-10.23-8.87a45.52,45.52,0,0,1-9.4-8.22,29.75,29.75,0,0,1-4.95-8.8,33.8,33.8,0,0,1-1.74-11.35q0-12.4,6.89-19.66t18.5-7.25a40.47,40.47,0,0,1,21.31,6.2l-5.94,14.38a56.86,56.86,0,0,0-6.63-3.3,19,19,0,0,0-7.42-1.45,8.15,8.15,0,0,0-6.69,2.87,12,12,0,0,0-2.35,7.81A13.49,13.49,0,0,0,3008,1586q2.8,3.63,9.79,8.25,9.43,6.33,13.16,12.93A30,30,0,0,1,3034.72,1622.18Z" transform="translate(-453.3 -455)"/><path class="cls-5" d="M3078.46,1620.14l32.32-19.07-32.32-18.93v-14.85l46.5,28.64v10.29l-46.5,28.76Z" transform="translate(-453.3 -455)"/><circle class="cls-11" cx="2485.59" cy="1650.64" r="157.16" transform="translate(-892.47 1786.04) rotate(-45)"/><path class="cls-5" d="M2402.51,1650.89l45.42-23.68v10.09a3.93,3.93,0,0,1-.58,2.1,4.62,4.62,0,0,1-1.89,1.63l-20.82,10.67a18.1,18.1,0,0,1-2.78,1.17c-1,.33-2,.62-3.12.89,1.1.27,2.15.57,3.12.89a19.18,19.18,0,0,1,2.78,1.18l20.82,10.72a4.56,4.56,0,0,1,1.89,1.64,3.85,3.85,0,0,1,.58,2.09v10.09l-45.42-23.74Z" transform="translate(-453.3 -455)"/><path class="cls-5" d="M2473.56,1692.59a8.13,8.13,0,0,1-1.32,2.29,7.7,7.7,0,0,1-1.83,1.64,9.13,9.13,0,0,1-2.18,1,7.77,7.77,0,0,1-2.24.34h-6l33.49-85.68a8.07,8.07,0,0,1,2.81-3.7,7.47,7.47,0,0,1,4.42-1.29h6Z" transform="translate(-453.3 -455)"/><path class="cls-5" d="M2518.58,1680.37v-10.09a3.93,3.93,0,0,1,.57-2.09,4.66,4.66,0,0,1,1.9-1.64l20.82-10.72a27.44,27.44,0,0,1,5.9-2.07c-1.11-.27-2.15-.56-3.12-.89a17.69,17.69,0,0,1-2.78-1.17L2521.05,1641a4.72,4.72,0,0,1-1.9-1.63,4,4,0,0,1-.57-2.1v-10.09l45.42,23.68v5.74Z" transform="translate(-453.3 -455)"/><path class="cls-27" d="M2682.57,1917.36c-.61,1.17-19.28,14.32-19.28,14.32s-13,71.43,10.82,106.6S2779,2010.83,2779,2010.83s45.6-7.13,68.5-96.79c5.26-20.56-27.6-4.94-64.21-1.15C2736.05,1917.78,2682.57,1917.36,2682.57,1917.36Z" transform="translate(-453.3 -455)"/><path class="cls-28" d="M2601.64,2141.28a167.55,167.55,0,0,1,50.91-23.68c6.84-1.86,43.75,8.87,66.58,8.35,31.33-.72,63.21-15,89-8.55,25.65,6.4,46.64,14.75,58.77,23.37,36.28,25.8,57.58,73.92,70.57,121.59-24.59,25.23-55.52,36.45-55.52,36.45l-5.72,231.69-137,70.09-156.37-78.5,5.6-226.42s-49.66-23.12-53.3-31.54S2557.83,2171.4,2601.64,2141.28Z" transform="translate(-453.3 -455)"/><path class="cls-29" d="M2537.51,2263.12s-66.54,184.48,85.2,260.3c31.51-4.18,19.39-56.51,19.39-56.51s-65.93-14.59-46.13-168.48C2577.74,2283.43,2537.51,2263.12,2537.51,2263.12Z" transform="translate(-453.3 -455)"/><path class="cls-30" d="M2934.31,2263.12s45.78,192.57-85.2,260.3c-31.51-4.18-19.39-56.51-19.39-56.51s53.14-26.17,46.13-168.48C2894.08,2283.43,2934.31,2263.12,2934.31,2263.12Z" transform="translate(-453.3 -455)"/><rect class="cls-31" x="2127.79" y="1878.49" width="300.43" height="202.89" rx="5.05"/><path class="cls-32" d="M2749,2388.43c1.59,10.77-4.17,20.54-14.94,22.13a19.7,19.7,0,0,1-22.37-16.61c-1.6-10.76,3.33-21.45,14.1-23S2747.44,2377.67,2749,2388.43Z" transform="translate(-453.3 -455)"/><path class="cls-5" d="M3013.29,2596.53c-34.38-7.89-113.84-3.65-113.84-3.65l-3.23,8.75-5.36,43.51s75.68,13.64,113,13.61a35.32,35.32,0,0,0,10.47-1.57,45.63,45.63,0,0,0,3.3-3.23C3033.43,2636.67,3028.86,2611.28,3013.29,2596.53Z" transform="translate(-453.3 -455)"/><path class="cls-33" d="M3016.7,2597.39c-1.08-.3-2.22-.59-3.41-.86,15.57,14.75,20.14,40.14,4.32,57.42a45.63,45.63,0,0,1-3.3,3.23C3042.29,2648.47,3045.61,2605.52,3016.7,2597.39Z" transform="translate(-453.3 -455)"/><path class="cls-34" d="M2876.62,2590.43l13.45.57a25.93,25.93,0,0,1,18.91,9.78,31.85,31.85,0,0,1,6.93,21.81,25.13,25.13,0,0,1-7.28,16.6,20.38,20.38,0,0,1-15.75,6l-20.58-1.47Z" transform="translate(-453.3 -455)"/><path class="cls-5" d="M2424.16,2592.34c34.57-6.83,113.9-.15,113.9-.15l3,8.85,4.26,43.65s-76,11.31-113.27,10.14a35,35,0,0,1-10.42-1.89,44.11,44.11,0,0,1-3.22-3.33C2403,2631.85,2408.23,2606.61,2424.16,2592.34Z" transform="translate(-453.3 -455)"/><path class="cls-33" d="M2420.74,2593.1c1.08-.27,2.23-.52,3.42-.76-15.93,14.27-21.13,39.51-5.74,57.27a44.11,44.11,0,0,0,3.22,3.33C2393.88,2643.38,2391.64,2600.34,2420.74,2593.1Z" transform="translate(-453.3 -455)"/><path class="cls-35" d="M2560.94,2590.44l-13.46.16a25.74,25.74,0,0,0-19.14,9.19,31.72,31.72,0,0,0-7.48,21.6,25.29,25.29,0,0,0,6.86,16.81,20.52,20.52,0,0,0,15.59,6.46l20.62-.83Z" transform="translate(-453.3 -455)"/><path class="cls-36" d="M3022.91,2460.14c-15.59-35.89-53.73-41.71-86.19-24.93-.56.74-206.12,106.09-387.4,152.26a197,197,0,0,1,8.44,51.74c.11,3.88,0,7.7-.18,11.48,139-7.14,289.88-53.5,419.53-94.25C3017.31,2543.48,3040.19,2499.91,3022.91,2460.14Z" transform="translate(-453.3 -455)"/><path class="cls-36" d="M2877.6,2641.94a119.56,119.56,0,0,1,11.7-56c.24-.79.53-1.55.78-2.34-10.35-3.2-23.73-7.55-41.29-13.51-128.73-44-226.93-88.53-320.66-139.74-36.41-19.89-77.8-6.56-89.46,36.53-10.41,38.46,13.21,69.21,47.12,82.83,116.59,46.83,287.85,89.61,392,96.61C2877.74,2644.85,2877.65,2643.39,2877.6,2641.94Z" transform="translate(-453.3 -455)"/><path class="cls-37" d="M2652.55,2117.6s13.84,60,81.06,58.75c68.46-1.25,74.56-58.95,74.56-58.95l-44.72-9.57-3.74-49.82-67.27,5-1.24,47.34Z" transform="translate(-453.3 -455)"/><path class="cls-38" d="M2698.9,1911.14s-71.62,138.75,13.34,172.41c59.93,23.74,97.51-92.14,86.3-123.53-17.33-48.53-28.74-42.77-28.74-42.77Z" transform="translate(-453.3 -455)"/><path class="cls-11" d="M2798.54,1960c-.2-.57-.37-1.07-.53-1.54.27,2.56.42,5.23.45,8,.1-2,.2-3.91.26-5.88C2798.66,1960.4,2798.61,1960.2,2798.54,1960Z" transform="translate(-453.3 -455)"/><path class="cls-11" d="M2798,1958.48c-.11-.94-.22-1.88-.36-2.8C2801.34,1961.81,2794.25,1947.51,2798,1958.48Z" transform="translate(-453.3 -455)"/><path class="cls-39" d="M2831.7,1873.89c38.38-8.73,11.74,110-45.4,90.52s-83.75-31.41-92.66-15.72-23.74,79.86-28.67,46.59c-4.61-31.11-9.07-88.1,21-100.54,17-7.06,32,8.24,43.78,4.41,18.09-5.9,35.51-6.1,46.26.1C2796.3,1911,2807.31,1879.44,2831.7,1873.89Z" transform="translate(-453.3 -455)"/><path class="cls-40" d="M2687.25,1971.77s-12.39-18.71-18,.43-2.06,45.6,9.29,33.31S2687.25,1971.77,2687.25,1971.77Z" transform="translate(-453.3 -455)"/><path class="cls-41" d="M2731.66,2180.33c-40.55,0-71.46-22.91-82.91-61.61a4,4,0,1,1,7.59-2.24c5,16.93,22.32,55.93,75.17,55.93l2,0c15.75-.29,29.32-3.71,40.34-10.18a4,4,0,0,1,4,6.83c-12.21,7.17-27.08,11-44.2,11.27Z" transform="translate(-453.3 -455)"/><g class="cls-6"><path class="cls-5" d="M2376.53,1232.65a10.76,10.76,0,0,1,14.87,3.23c6.25,9.7,13,19.28,20.1,28.46a10.75,10.75,0,0,1-1.78,15l-.16.13a10.76,10.76,0,0,1-15.09-1.94c-7.47-9.67-14.59-19.75-21.16-30a10.75,10.75,0,0,1,2.3-14.2A10.31,10.31,0,0,1,2376.53,1232.65Zm72.54,74c8.27,8.13,17,16,25.86,23.34a10.76,10.76,0,1,1-13.72,16.57c-9.36-7.75-18.51-16-27.22-24.57a10.76,10.76,0,0,1-.13-15.21,12.71,12.71,0,0,1,.95-.86A10.76,10.76,0,0,1,2449.07,1306.69Zm71.84,56.31c9.85,6.07,20.08,11.78,30.41,17a10.75,10.75,0,1,1-9.67,19.21c-10.88-5.47-21.66-11.49-32-17.88a10.76,10.76,0,0,1-3.52-14.8,10.9,10.9,0,0,1,2.42-2.75A10.76,10.76,0,0,1,2520.91,1363Zm82.63,38.84c11,3.72,22.23,7,33.46,9.76a10.76,10.76,0,0,1-5.14,20.9c-11.83-2.91-23.68-6.37-35.22-10.28a10.76,10.76,0,0,1,6.9-20.38Zm89.23,19.46c11.49,1.19,23.19,1.9,34.79,2.11a10.76,10.76,0,0,1-.4,21.51c-12.2-.22-24.51-1-36.6-2.22a10.76,10.76,0,1,1,2.21-21.4Zm91.3-.77c11.49-1.38,23-3.28,34.39-5.64a10.76,10.76,0,0,1,4.38,21.07c-11.93,2.48-24.11,4.47-36.19,5.93a10.76,10.76,0,0,1-2.58-21.36Zm329.59-225.69a10.76,10.76,0,0,1,4.75,14.45c-5.49,10.86-11.53,21.63-17.95,32a10.75,10.75,0,0,1-18.29-11.32c6.09-9.85,11.83-20.08,17-30.39a10.61,10.61,0,0,1,2.86-3.54A10.74,10.74,0,0,1,3113.66,1194.84Zm-240.78,204.72c10.88-3.91,21.73-8.33,32.24-13.15a10.75,10.75,0,0,1,9,19.55c-11.06,5.08-22.49,9.74-34,13.85a10.76,10.76,0,0,1-10.37-18.52A10.6,10.6,0,0,1,2872.88,1399.56Zm191.37-125a10.76,10.76,0,0,1,1.39,15.15c-7.78,9.36-16.07,18.5-24.63,27.18a10.76,10.76,0,1,1-15.32-15.11c8.14-8.25,16-16.94,23.41-25.83a10.44,10.44,0,0,1,1.54-1.51A10.77,10.77,0,0,1,3064.25,1274.51Zm-109.49,84.76c9.73-6.24,19.32-13,28.5-20a10.75,10.75,0,0,1,13.29,16.91l-.18.14c-9.66,7.43-19.76,14.53-30,21.09a10.76,10.76,0,0,1-11.61-18.11Z" transform="translate(-453.3 -455)"/><path class="cls-5" d="M3129.9,1125.83a10.72,10.72,0,0,0-3.58,5.34c-1.56,5.32-3.27,10.69-5.06,16a10.75,10.75,0,1,0,20.36,6.91c1.89-5.55,3.69-11.21,5.34-16.81a10.75,10.75,0,0,0-17.06-11.42Z" transform="translate(-453.3 -455)"/><path class="cls-5" d="M3092.47,800a10.77,10.77,0,0,0-2.61,13.71c2.74,4.81,5.43,9.77,8,14.73a10.76,10.76,0,0,0,19.12-9.86c-2.69-5.22-5.52-10.44-8.41-15.52a10.77,10.77,0,0,0-14.67-4A11.09,11.09,0,0,0,3092.47,800Z" transform="translate(-453.3 -455)"/><path class="cls-5" d="M2483.12,667.15a10.76,10.76,0,1,1,12.63,17.42c-9.16,6.64-18.17,13.77-26.9,21.27a10.76,10.76,0,1,1-14-16.31q5.67-4.89,11.47-9.53C2471.79,675.58,2477.46,671.25,2483.12,667.15Zm-54.88,62.6a10.75,10.75,0,0,1,.92,15.18c-7.57,8.54-14.85,17.49-21.66,26.6a10.76,10.76,0,1,1-17.24-12.87c7.17-9.59,14.83-19,22.8-28a10.53,10.53,0,0,1,1.32-1.27A10.76,10.76,0,0,1,2428.24,729.75Zm104.58-93.68c10.56-5.63,21.51-10.9,32.53-15.63a10.76,10.76,0,1,1,8.5,19.77c-10.48,4.49-20.87,9.49-30.9,14.84a10.76,10.76,0,0,1-10.13-19ZM2373.11,803.72a10.76,10.76,0,0,1,4.23,14.62c-5.5,10-10.63,20.3-15.27,30.69a10.76,10.76,0,1,1-19.65-8.75c4.88-10.95,10.29-21.83,16.08-32.33a10.73,10.73,0,0,1,14.61-4.23Zm247.53-202.64c11.53-3.18,23.36-5.9,35.16-8.1a10.76,10.76,0,0,1,3.94,21.15c-11.21,2.09-22.44,4.68-33.4,7.69a10.75,10.75,0,1,1-5.7-20.74ZM2714,586.19c12-.58,24.11-.65,36.08-.23a10.76,10.76,0,1,1-.76,21.5c-11.37-.4-22.91-.33-34.29.22a10.76,10.76,0,0,1-1-21.49Zm94.39,5.81c11.82,2,23.69,4.62,35.27,7.64a10.75,10.75,0,1,1-5.42,20.81c-11-2.86-22.28-5.3-33.52-7.25a10.76,10.76,0,0,1,3.67-21.2Zm90.87,26.27c11.09,4.58,22.11,9.69,32.76,15.18a10.76,10.76,0,1,1-9.87,19.12c-10.11-5.22-20.57-10.07-31.1-14.42a10.75,10.75,0,1,1,8.21-19.88Zm82.93,45.61c9.78,6.9,19.4,14.3,28.58,22a10.76,10.76,0,1,1-13.83,16.48c-8.73-7.33-17.86-14.36-27.15-20.92a10.73,10.73,0,0,1-2.59-15,10.54,10.54,0,0,1,2.06-2.2A10.77,10.77,0,0,1,2982.19,663.88ZM3053,726.53c5.93,6.53,11.73,13.32,17.24,20.18q3,3.74,5.89,7.51a10.64,10.64,0,0,1-2,15.08,10.75,10.75,0,0,1-15.08-2c-1.84-2.39-3.7-4.78-5.6-7.14-5.24-6.53-10.75-13-16.39-19.19a10.76,10.76,0,0,1,.73-15.19l.51-.44A10.76,10.76,0,0,1,3053,726.53Z" transform="translate(-453.3 -455)"/><path class="cls-5" d="M2325.81,890.22a10.7,10.7,0,0,0-3.6,5.39c-1.62,5.6-3.15,11.33-4.55,17a10.76,10.76,0,1,0,20.89,5.13c1.34-5.43,2.79-10.87,4.33-16.19a10.75,10.75,0,0,0-17.07-11.37Z" transform="translate(-453.3 -455)"/><path class="cls-42" d="M2414.63,1051.83a5,5,0,0,0,3.35,4.78l57.69,20.42a266.54,266.54,0,0,0,32.37,80.06l-27.22,54.76a5,5,0,0,0,.92,5.76l51.47,52.32a5,5,0,0,0,5.75,1l55.19-26.34a266.5,266.5,0,0,0,79.53,33.67l19.48,58a5,5,0,0,0,4.73,3.43l73.39.59a5,5,0,0,0,4.78-3.35l20.42-57.69a266.65,266.65,0,0,0,80.06-32.37l54.75,27.23a5,5,0,0,0,5.77-.92l52.32-51.48a5,5,0,0,0,1-5.75l-26.34-55.19a266.39,266.39,0,0,0,33.67-79.53l58-19.48a5,5,0,0,0,3.42-4.72l.6-73.4a5,5,0,0,0-3.35-4.78l-57.69-20.41a266.6,266.6,0,0,0-32.37-80.07l27.22-54.75a5,5,0,0,0-.92-5.77l-51.47-52.32a5.05,5.05,0,0,0-5.75-1l-55.19,26.34a266.76,266.76,0,0,0-79.53-33.67l-19.48-58a5,5,0,0,0-4.73-3.43l-73.39-.59a5,5,0,0,0-4.78,3.35l-20.42,57.68a266.41,266.41,0,0,0-80.06,32.38l-54.76-27.23a5,5,0,0,0-5.76.92L2485,813.77a5,5,0,0,0-1,5.75l26.34,55.19a266.33,266.33,0,0,0-33.67,79.52l-58,19.48a5,5,0,0,0-3.42,4.73Z" transform="translate(-453.3 -455)"/><path class="cls-5" d="M2699.89,954.09a73.73,73.73,0,1,1-8.92,6.14A73.86,73.86,0,0,1,2699.89,954.09Zm92,77.94a56.56,56.56,0,1,0-26.13,34.52,57.53,57.53,0,0,0,6.91-4.76A56.18,56.18,0,0,0,2791.92,1032Z" transform="translate(-453.3 -455)"/><path class="cls-5" d="M2625.44,876.18a184.65,184.65,0,0,0-13.93,12.39h0q-2.12,2.07-4.15,4.22a182.79,182.79,0,0,0-18.31,22.55l-.22.33-.63.93c-.41.6-.81,1.21-1.21,1.82a4.29,4.29,0,0,0,.24,5.05,4.13,4.13,0,0,0,1,.9,4.29,4.29,0,0,0,5.95-1.23,173,173,0,0,1,183.54-73.56,171.8,171.8,0,0,1,84.2,47.11A175.84,175.84,0,0,1,2873.74,910a172.86,172.86,0,0,1-13.8,231.09c-68,66.85-177.55,65.94-244.37-2a172.69,172.69,0,0,1-44.78-80.42,4.08,4.08,0,0,0-.83-1.68,4.3,4.3,0,0,0-7.53,3.7,180.63,180.63,0,0,0,34.76,70.66,183.14,183.14,0,0,0,12.24,13.78c70.16,71.31,185.27,72.21,256.55,2.08a181.46,181.46,0,0,0,14.48-242.6q-5.8-7.23-12.4-14a181.46,181.46,0,0,0-242.62-14.47Z" transform="translate(-453.3 -455)"/><path class="cls-5" d="M1911.89,1242a6.65,6.65,0,0,0-2,7.71c2.15,5.22,4.48,10.44,6.94,15.52a6.64,6.64,0,1,0,12-5.79c-2.34-4.84-4.57-9.81-6.62-14.79a6.64,6.64,0,0,0-8.67-3.61A6.43,6.43,0,0,0,1911.89,1242Z" transform="translate(-453.3 -455)"/><path class="cls-5" d="M1936.17,1286.89a6.64,6.64,0,0,1,9.18,2,276.25,276.25,0,0,0,16.33,22.59c1.22,1.53,2.46,3,3.73,4.55a6.65,6.65,0,0,1-.83,9.36,6.88,6.88,0,0,1-9.36-.83c-1.32-1.58-2.63-3.16-3.91-4.76a290.64,290.64,0,0,1-17.11-23.69,6.65,6.65,0,0,1,1.41-8.79C1935.79,1287.15,1936,1287,1936.17,1286.89Zm52.44,53.61a276.21,276.21,0,0,0,26,21.47,6.64,6.64,0,0,1-7.81,10.75,288.56,288.56,0,0,1-27.27-22.51,6.66,6.66,0,0,1-.32-9.4,8.55,8.55,0,0,1,.7-.65A6.64,6.64,0,0,1,1988.61,1340.5Zm54.49,39.57a272.19,272.19,0,0,0,30.5,14.43,6.64,6.64,0,1,1-4.93,12.34,286.45,286.45,0,0,1-32-15.13,6.65,6.65,0,0,1-2.62-9,6.78,6.78,0,0,1,1.66-2A6.67,6.67,0,0,1,2043.1,1380.07Zm62.55,25a273.08,273.08,0,0,0,33.1,6.52,6.65,6.65,0,0,1-1.76,13.18,290.06,290.06,0,0,1-34.71-6.84,6.65,6.65,0,0,1,3.37-12.86Zm66.76,9a278.68,278.68,0,0,0,33.69-1.7,6.64,6.64,0,1,1,1.48,13.2,291.09,291.09,0,0,1-35.31,1.79,6.64,6.64,0,0,1-4.09-11.83A6.72,6.72,0,0,1,2172.41,1414Zm66.9-7.52a273.53,273.53,0,0,0,32.22-9.87,6.64,6.64,0,1,1,4.67,12.44,284.83,284.83,0,0,1-33.8,10.35,6.64,6.64,0,0,1-5.7-11.64A6.45,6.45,0,0,1,2239.31,1406.48Zm63-23.65a273,273,0,0,0,28.84-17.49,6.65,6.65,0,0,1,7.58,10.92,287.28,287.28,0,0,1-30.24,18.33,6.64,6.64,0,0,1-7.25-11.06A7,7,0,0,1,2302.31,1382.83Zm88.43-63a6.64,6.64,0,0,1,.62,9.37,285.14,285.14,0,0,1-21.44,22c-1.14,1.06-2.29,2.1-3.44,3.14a6.58,6.58,0,0,1-9.38-.54,6.64,6.64,0,0,1,.53-9.38c1.09-1,2.17-2,3.26-3a273.93,273.93,0,0,0,20.47-21,7.18,7.18,0,0,1,.85-.81A6.65,6.65,0,0,1,2390.74,1319.81Z" transform="translate(-453.3 -455)"/><path class="cls-5" d="M1998.78,914.09a290.56,290.56,0,0,1,28.65-19.72,6.64,6.64,0,1,1,6.86,11.38A276,276,0,0,0,2007,924.56a6.64,6.64,0,0,1-8.25-10.41Zm-16.68,23.06a6.65,6.65,0,0,1,0,9.39,277.71,277.71,0,0,0-22.08,24.8,6.65,6.65,0,0,1-10.44-8.23,290.84,290.84,0,0,1,23.14-26,6.17,6.17,0,0,1,.54-.48A6.64,6.64,0,0,1,1982.1,937.15Zm76.18-58.89A288.58,288.58,0,0,1,2090.86,866a6.65,6.65,0,0,1,3.91,12.71,274.28,274.28,0,0,0-31.08,11.65,6.65,6.65,0,0,1-5.41-12.14ZM1938.86,989.49a6.65,6.65,0,0,1,2.24,9.13,273.83,273.83,0,0,0-15.43,29.38,6.64,6.64,0,1,1-12.12-5.45,285.22,285.22,0,0,1,16.19-30.82,6.63,6.63,0,0,1,9.12-2.24Zm185.8-131.61a288.26,288.26,0,0,1,34.55-4,6.65,6.65,0,1,1,.73,13.27,274.08,274.08,0,0,0-33,3.84,6.65,6.65,0,0,1-5.32-11.73A6.72,6.72,0,0,1,2124.66,857.88ZM2194,854a291.26,291.26,0,0,1,34.52,4.36,6.64,6.64,0,1,1-2.46,13,277.18,277.18,0,0,0-32.93-4.15A6.64,6.64,0,0,1,2194,854Zm68.27,12.85a286.55,286.55,0,0,1,32.48,12.52,6.65,6.65,0,0,1-5.52,12.09,272.32,272.32,0,0,0-31-11.94,6.63,6.63,0,0,1-4.32-8.34,6.54,6.54,0,0,1,2.16-3.17A6.65,6.65,0,0,1,2262.26,866.87Z" transform="translate(-453.3 -455)"/><path class="cls-5" d="M1903.33,1052.19a6.62,6.62,0,0,0-2.19,3.22c-1.68,5.43-3.2,10.94-4.53,16.37a6.65,6.65,0,0,0,12.91,3.16c1.26-5.17,2.72-10.43,4.32-15.61a6.64,6.64,0,0,0-10.51-7.14Z" transform="translate(-453.3 -455)"/><path class="cls-42" d="M1961,1164.78a3.36,3.36,0,0,0,2.25,3.2l38.6,13.66a178.29,178.29,0,0,0,21.66,53.57l-18.22,36.64a3.36,3.36,0,0,0,.62,3.86l34.44,35a3.37,3.37,0,0,0,3.85.68l36.93-17.63a178.3,178.3,0,0,0,53.22,22.53l13,38.82a3.37,3.37,0,0,0,3.16,2.29l49.12.4a3.35,3.35,0,0,0,3.19-2.24l13.67-38.6a178.42,178.42,0,0,0,53.57-21.67l36.64,18.22a3.38,3.38,0,0,0,3.86-.61l35-34.45a3.37,3.37,0,0,0,.67-3.85l-17.62-36.93a178.3,178.3,0,0,0,22.53-53.22l38.81-13a3.37,3.37,0,0,0,2.3-3.16l.39-49.11a3.35,3.35,0,0,0-2.24-3.2l-38.6-13.66a178.34,178.34,0,0,0-21.66-53.58l18.22-36.64a3.37,3.37,0,0,0-.62-3.86l-34.45-35a3.35,3.35,0,0,0-3.84-.67l-36.93,17.62a178.66,178.66,0,0,0-53.22-22.53l-13-38.81a3.37,3.37,0,0,0-3.17-2.29l-49.11-.4a3.38,3.38,0,0,0-3.2,2.24L2137.13,967a178.29,178.29,0,0,0-53.57,21.66l-36.64-18.22a3.38,3.38,0,0,0-3.86.62l-35,34.45a3.37,3.37,0,0,0-.68,3.84l17.63,36.93a178.4,178.4,0,0,0-22.53,53.22l-38.82,13a3.35,3.35,0,0,0-2.29,3.16Z" transform="translate(-453.3 -455)"/><path class="cls-5" d="M2151.39,1098.61a50.19,50.19,0,1,1-6.13,4.23A50.48,50.48,0,0,1,2151.39,1098.61Zm57.31,24.67a37,37,0,0,0-50.59-13.21h0a37,37,0,0,0,37.38,63.8,36.44,36.44,0,0,0,4.47-3.08A37,37,0,0,0,2208.7,1123.28Z" transform="translate(-453.3 -455)"/><path class="cls-5" d="M2099.57,1044.39c-3.28,2.64-6.44,5.46-9.51,8.46a126.86,126.86,0,0,0-16.28,19.63l-.63,1a6.65,6.65,0,0,0,.37,7.8,6.47,6.47,0,0,0,1.54,1.4,6.66,6.66,0,0,0,9.2-1.91,111.91,111.91,0,0,1,15.12-18.4h0l.94-.92a110.78,110.78,0,0,1,47.57-27.18,112.55,112.55,0,0,1,29.85-4h1a111.1,111.1,0,0,1,78.83,33.4,114.58,114.58,0,0,1,7.66,8.6,111.88,111.88,0,1,1-196.12,96.26,6.5,6.5,0,0,0-1.28-2.59,6.64,6.64,0,0,0-11.64,5.72,125.17,125.17,0,1,0,219.41-107.68,126.86,126.86,0,0,0-8.55-9.63A125.36,125.36,0,0,0,2099.57,1044.39Z" transform="translate(-453.3 -455)"/></g></g></g></svg>