<svg xmlns="http://www.w3.org/2000/svg" xml:space="preserve" width="512px" height="512px" version="1.1" style="shape-rendering:geometricPrecision; text-rendering:geometricPrecision; image-rendering:optimizeQuality; fill-rule:evenodd; clip-rule:evenodd" viewBox="0 0 512 512" xmlns:xlink="http://www.w3.org/1999/xlink">
 <defs>
  <style type="text/css">
   
    .fil0 {fill:black}
   
  </style>
 </defs>
 <g id="Layer_x0020_1">
  <metadata id="CorelCorpID_0Corel-Layer"></metadata>
  <g id="_382651784">
   <path class="fil0" d="M234 407c-55,0 -108,-6 -156,-18 -3,-1 -6,-4 -6,-7l0 -195c0,-3 2,-5 4,-6 2,-1 4,-1 7,0l162 81 161 -81c3,-1 5,-1 7,0 2,1 4,3 4,6l0 195c0,3 -3,6 -6,7 -62,12 -121,18 -177,18z" id="id_101" style="fill: rgb(12, 74, 110);"></path>
   <path class="fil0" d="M245 277c-2,0 -3,-1 -4,-1l-237 -119c-2,-1 -4,-4 -4,-6 0,-3 2,-5 4,-7l237 -119c2,-1 5,-1 7,0l237 119c3,2 4,4 4,7 0,2 -1,5 -4,6l-237 119c-1,0 -2,1 -3,1zm-170 -119c-2,0 -5,-2 -6,-4 -2,-4 0,-8 3,-10l169 -84c4,-2 8,-1 10,3 2,3 0,7 -3,9l-170 85c-1,0 -2,1 -3,1z" id="id_102" style="fill: rgb(12, 74, 110);"></path>
   <path class="fil0" d="M461 360c-4,0 -7,-4 -7,-7l0 -185 -230 -16c-4,0 -7,-4 -7,-7 0,-4 4,-7 7,-7l237 16c4,0 7,4 7,7l0 192c0,3 -3,7 -7,7z" id="id_103" style="fill: rgb(12, 74, 110);"></path>
   <path class="fil0" d="M461 420c-21,0 -37,-17 -37,-37 0,-21 16,-37 37,-37 20,0 37,16 37,37 0,20 -17,37 -37,37z" id="id_104" style="fill: rgb(2, 132, 199);"></path>
   <path class="fil0" d="M461 487c-4,0 -7,-3 -7,-7l0 -39c0,-4 3,-7 7,-7 4,0 7,3 7,7l0 39c0,4 -3,7 -7,7z" id="id_105" style="fill: rgb(2, 132, 199);"></path>
   <path class="fil0" d="M417 466c-1,0 -3,0 -4,-1 -3,-2 -4,-6 -2,-9l19 -34c2,-4 7,-5 10,-3 3,2 5,6 3,10l-20 34c-1,2 -4,3 -6,3z" id="id_106" style="fill: rgb(2, 132, 199);"></path>
   <path class="fil0" d="M505 466c-2,0 -5,-1 -6,-3l-20 -34c-2,-4 -1,-8 3,-10 3,-2 7,-1 9,3l20 34c2,3 1,7 -3,9 -1,1 -2,1 -3,1z" id="id_107" style="fill: rgb(2, 132, 199);"></path>
   <path class="fil0" d="M44 297c-4,0 -7,-3 -7,-7l0 -81c0,-4 3,-7 7,-7 4,0 7,3 7,7l0 81c0,4 -3,7 -7,7z" id="id_108" style="fill: rgb(2, 132, 199);"></path>
   <path class="fil0" d="M44 349c-4,0 -7,-3 -7,-7l0 -24c0,-4 3,-7 7,-7 4,0 7,3 7,7l0 24c0,4 -3,7 -7,7z" id="id_109" style="fill: rgb(2, 132, 199);"></path>
  </g>
 </g>
</svg>