<?xml version="1.0" encoding="UTF-8"?>
<svg id="Lager_1" data-name="Lager 1" xmlns="http://www.w3.org/2000/svg" xmlns:xlink="http://www.w3.org/1999/xlink" viewBox="0 0 361.22 120.2">
  <defs>
    <style>
      .cls-1 {
        clip-path: url(#clippath-20);
      }

      .cls-2 {
        clip-path: url(#clippath-11);
      }

      .cls-3 {
        clip-path: url(#clippath-16);
      }

      .cls-4 {
        fill: #fff;
      }

      .cls-5 {
        clip-path: url(#clippath-2);
      }

      .cls-6 {
        clip-path: url(#clippath-13);
      }

      .cls-7 {
        clip-path: url(#clippath-25);
      }

      .cls-8 {
        clip-path: url(#clippath-15);
      }

      .cls-9 {
        clip-path: url(#clippath-6);
      }

      .cls-10 {
        fill: #4b8c8e;
      }

      .cls-11 {
        clip-path: url(#clippath-26);
      }

      .cls-12 {
        fill: #1b2123;
      }

      .cls-13 {
        clip-path: url(#clippath-7);
      }

      .cls-14 {
        clip-path: url(#clippath-21);
      }

      .cls-15 {
        clip-path: url(#clippath-1);
      }

      .cls-16 {
        clip-path: url(#clippath-4);
      }

      .cls-17 {
        clip-path: url(#clippath-27);
      }

      .cls-18 {
        clip-path: url(#clippath-12);
      }

      .cls-19 {
        clip-path: url(#clippath-24);
      }

      .cls-20 {
        clip-path: url(#clippath-22);
      }

      .cls-21 {
        clip-path: url(#clippath-9);
      }

      .cls-22 {
        clip-path: url(#clippath);
      }

      .cls-23 {
        fill: none;
      }

      .cls-24 {
        clip-path: url(#clippath-19);
      }

      .cls-25 {
        clip-path: url(#clippath-3);
      }

      .cls-26 {
        clip-path: url(#clippath-8);
      }

      .cls-27 {
        clip-path: url(#clippath-29);
      }

      .cls-28 {
        clip-path: url(#clippath-18);
      }

      .cls-29 {
        clip-path: url(#clippath-14);
      }

      .cls-30 {
        clip-path: url(#clippath-17);
      }

      .cls-31 {
        clip-path: url(#clippath-5);
      }

      .cls-32 {
        clip-path: url(#clippath-10);
      }

      .cls-33 {
        clip-path: url(#clippath-23);
      }

      .cls-34 {
        clip-path: url(#clippath-28);
      }
    </style>
    <clipPath id="clippath">
      <rect class="cls-23" x="6" y="14.67" width="73.33" height="76"/>
    </clipPath>
    <clipPath id="clippath-1">
      <rect class="cls-23" x="4.43" y="22.89" width="85" height="56" transform="translate(-21.48 61.5) rotate(-56.14)"/>
    </clipPath>
    <clipPath id="clippath-2">
      <rect class="cls-23" x="4.43" y="22.89" width="85" height="56" transform="translate(-21.48 61.5) rotate(-56.14)"/>
    </clipPath>
    <clipPath id="clippath-3">
      <rect class="cls-23" x="8.67" y="17.33" width="69.33" height="70.67"/>
    </clipPath>
    <clipPath id="clippath-4">
      <rect class="cls-23" x="4.43" y="22.89" width="85" height="56" transform="translate(-21.48 61.5) rotate(-56.14)"/>
    </clipPath>
    <clipPath id="clippath-5">
      <rect class="cls-23" x="4.43" y="22.89" width="85" height="56" transform="translate(-21.48 61.5) rotate(-56.14)"/>
    </clipPath>
    <clipPath id="clippath-6">
      <rect class="cls-23" x="15.33" y="70.67" width="14.67" height="6.67"/>
    </clipPath>
    <clipPath id="clippath-7">
      <rect class="cls-23" x="4.43" y="22.89" width="85" height="56" transform="translate(-21.48 61.5) rotate(-56.14)"/>
    </clipPath>
    <clipPath id="clippath-8">
      <rect class="cls-23" x="4.43" y="22.89" width="85" height="56" transform="translate(-21.48 61.5) rotate(-56.14)"/>
    </clipPath>
    <clipPath id="clippath-9">
      <rect class="cls-23" x="35.33" y="33.33" width="13.33" height="16"/>
    </clipPath>
    <clipPath id="clippath-10">
      <rect class="cls-23" x="4.43" y="22.89" width="85" height="56" transform="translate(-21.48 61.5) rotate(-56.14)"/>
    </clipPath>
    <clipPath id="clippath-11">
      <rect class="cls-23" x="4.43" y="22.89" width="85" height="56" transform="translate(-21.48 61.5) rotate(-56.14)"/>
    </clipPath>
    <clipPath id="clippath-12">
      <rect class="cls-23" x="35.33" y="29.33" width="40" height="36"/>
    </clipPath>
    <clipPath id="clippath-13">
      <rect class="cls-23" x="4.43" y="22.89" width="85" height="56" transform="translate(-21.48 61.5) rotate(-56.14)"/>
    </clipPath>
    <clipPath id="clippath-14">
      <rect class="cls-23" x="4.43" y="22.89" width="85" height="56" transform="translate(-21.48 61.5) rotate(-56.14)"/>
    </clipPath>
    <clipPath id="clippath-15">
      <rect class="cls-23" x="24.67" y="44" width="18.67" height="8"/>
    </clipPath>
    <clipPath id="clippath-16">
      <rect class="cls-23" x="4.43" y="22.89" width="85" height="56" transform="translate(-21.48 61.5) rotate(-56.14)"/>
    </clipPath>
    <clipPath id="clippath-17">
      <rect class="cls-23" x="4.43" y="22.89" width="85" height="56" transform="translate(-21.48 61.5) rotate(-56.14)"/>
    </clipPath>
    <clipPath id="clippath-18">
      <rect class="cls-23" x="62" y="45.33" width="5.33" height="6.67"/>
    </clipPath>
    <clipPath id="clippath-19">
      <rect class="cls-23" x="4.43" y="22.89" width="85" height="56" transform="translate(-21.48 61.5) rotate(-56.14)"/>
    </clipPath>
    <clipPath id="clippath-20">
      <rect class="cls-23" x="4.43" y="22.89" width="85" height="56" transform="translate(-21.48 61.5) rotate(-56.14)"/>
    </clipPath>
    <clipPath id="clippath-21">
      <rect class="cls-23" x="44.67" y="34.67" width="24" height="21.33"/>
    </clipPath>
    <clipPath id="clippath-22">
      <rect class="cls-23" x="4.43" y="22.89" width="85" height="56" transform="translate(-21.48 61.5) rotate(-56.14)"/>
    </clipPath>
    <clipPath id="clippath-23">
      <rect class="cls-23" x="4.43" y="22.89" width="85" height="56" transform="translate(-21.48 61.5) rotate(-56.14)"/>
    </clipPath>
    <clipPath id="clippath-24">
      <rect class="cls-23" x="35.33" y="52" width="17.33" height="13.33"/>
    </clipPath>
    <clipPath id="clippath-25">
      <rect class="cls-23" x="4.43" y="22.89" width="85" height="56" transform="translate(-21.48 61.5) rotate(-56.14)"/>
    </clipPath>
    <clipPath id="clippath-26">
      <rect class="cls-23" x="4.43" y="22.89" width="85" height="56" transform="translate(-21.48 61.5) rotate(-56.14)"/>
    </clipPath>
    <clipPath id="clippath-27">
      <rect class="cls-23" x="23.33" y="70.67" width="8" height="6.67"/>
    </clipPath>
    <clipPath id="clippath-28">
      <rect class="cls-23" x="4.43" y="22.89" width="85" height="56" transform="translate(-21.48 61.5) rotate(-56.14)"/>
    </clipPath>
    <clipPath id="clippath-29">
      <rect class="cls-23" x="4.43" y="22.89" width="85" height="56" transform="translate(-21.48 61.5) rotate(-56.14)"/>
    </clipPath>
  </defs>
  <path class="cls-10" d="M94.59,119.41l-.17-32.21-15.63,26.21h-7.65l-15.54-25.33v31.33h-15.88V58.64h14.15l21.35,35.08,20.83-35.08h14.15l.19,60.77h-15.81Z"/>
  <path class="cls-10" d="M135.21,71.58c7.8,0,13.76,1.79,17.88,5.35,4.11,3.56,6.17,9.01,6.17,16.35v26.13h-15.38v-6.08c-2.36,4.58-6.99,6.88-13.88,6.88-3.66,0-6.81-.64-9.48-1.92-2.66-1.28-4.66-3-6.02-5.17-1.36-2.17-2.04-4.64-2.04-7.42,0-4.46,1.71-7.92,5.13-10.38s8.68-3.69,15.79-3.69h9.38c-.29-4.98-3.62-7.48-9.98-7.48-2.25,0-4.54,.36-6.85,1.08-2.32,.72-4.29,1.72-5.9,3l-5.56-11.19c2.59-1.75,5.76-3.09,9.5-4.04,3.73-.96,7.48-1.44,11.25-1.44Zm-.6,38.19c1.9,0,3.57-.46,5.02-1.38,1.44-.93,2.48-2.29,3.13-4.08v-4.08h-7.1c-4.81,0-7.21,1.59-7.21,4.77,0,1.45,.55,2.6,1.65,3.48,1.09,.86,2.6,1.29,4.52,1.29Z"/>
  <path class="cls-10" d="M195.54,117.5c-1.39,.88-3.08,1.54-5.08,2-2,.47-4.13,.71-6.38,.71-6.14,0-10.86-1.51-14.17-4.52-3.29-3.01-4.94-7.5-4.94-13.46v-15.79h-6.85v-12.33h6.85v-12.25h16.5v12.25h10.75v12.33h-10.75v15.63c0,1.67,.44,2.98,1.33,3.94,.9,.96,2.1,1.44,3.6,1.44,1.92,0,3.59-.49,5.04-1.48l4.08,11.54Z"/>
  <path class="cls-10" d="M210.96,78c1.68-2.14,3.86-3.74,6.56-4.81,2.69-1.07,5.78-1.6,9.25-1.6v14.85c-1.52-.18-2.76-.27-3.73-.27-3.54,0-6.31,.96-8.31,2.88-1.99,1.91-2.98,4.82-2.98,8.75v21.63h-16.5v-47.06h15.71v5.65Z"/>
  <path class="cls-10" d="M275.21,95.98c0,.11-.09,1.47-.27,4.08h-34.21c.69,2.43,2.04,4.3,4.04,5.6,2,1.29,4.51,1.94,7.52,1.94,2.25,0,4.2-.31,5.85-.94,1.65-.64,3.31-1.69,4.98-3.15l8.69,9.04c-4.57,5.1-11.25,7.65-20.04,7.65-5.5,0-10.33-1.04-14.5-3.13-4.17-2.09-7.4-4.99-9.69-8.69-2.28-3.71-3.42-7.9-3.42-12.58s1.11-8.79,3.33-12.46c2.22-3.68,5.3-6.56,9.23-8.65,3.94-2.08,8.38-3.13,13.29-3.13s8.95,.97,12.77,2.92c3.82,1.93,6.84,4.74,9.06,8.42,2.23,3.67,3.35,8.02,3.35,13.06Zm-25.1-12.67c-2.54,0-4.67,.72-6.38,2.17-1.71,1.45-2.79,3.41-3.25,5.9h19.27c-.46-2.48-1.54-4.45-3.25-5.9-1.71-1.44-3.84-2.17-6.4-2.17Z"/>
  <path class="cls-10" d="M293.34,120.2c-3.93,0-7.81-.45-11.63-1.35-3.82-.9-6.89-2.07-9.21-3.52l4.96-11.29c2.14,1.33,4.68,2.4,7.63,3.19,2.96,.78,5.88,1.17,8.77,1.17,2.67,0,4.56-.27,5.69-.81,1.13-.55,1.69-1.35,1.69-2.4s-.68-1.78-2.04-2.21c-1.36-.44-3.52-.86-6.46-1.27-3.77-.46-6.97-1.06-9.6-1.81-2.63-.76-4.9-2.15-6.81-4.17-1.91-2.03-2.85-4.86-2.85-8.52,0-3.01,.9-5.69,2.69-8.02,1.79-2.34,4.41-4.2,7.85-5.56,3.44-1.36,7.57-2.04,12.38-2.04,3.42,0,6.8,.35,10.15,1.04,3.36,.7,6.17,1.68,8.44,2.96l-4.96,11.19c-4.17-2.3-8.68-3.46-13.54-3.46-2.6,0-4.51,.31-5.73,.92-1.21,.6-1.81,1.39-1.81,2.38,0,1.1,.66,1.87,1.98,2.31,1.33,.43,3.53,.88,6.6,1.33,3.88,.58,7.08,1.25,9.63,2,2.55,.75,4.77,2.13,6.65,4.13,1.89,1.99,2.83,4.78,2.83,8.38,0,2.95-.91,5.59-2.71,7.94-1.79,2.35-4.44,4.19-7.94,5.52s-7.71,2-12.63,2Z"/>
  <path class="cls-10" d="M337.18,71.58c7.8,0,13.76,1.79,17.88,5.35,4.11,3.56,6.17,9.01,6.17,16.35v26.13h-15.38v-6.08c-2.36,4.58-6.99,6.88-13.88,6.88-3.66,0-6.81-.64-9.48-1.92-2.66-1.28-4.66-3-6.02-5.17-1.36-2.17-2.04-4.64-2.04-7.42,0-4.46,1.71-7.92,5.13-10.38s8.68-3.69,15.79-3.69h9.38c-.29-4.98-3.62-7.48-9.98-7.48-2.25,0-4.54,.36-6.85,1.08-2.32,.72-4.29,1.72-5.9,3l-5.56-11.19c2.59-1.75,5.76-3.09,9.5-4.04,3.73-.96,7.48-1.44,11.25-1.44Zm-.6,38.19c1.9,0,3.57-.46,5.02-1.38,1.44-.93,2.48-2.29,3.13-4.08v-4.08h-7.1c-4.81,0-7.21,1.59-7.21,4.77,0,1.45,.55,2.6,1.65,3.48,1.09,.86,2.6,1.29,4.52,1.29Z"/>
  <g class="cls-22">
    <g class="cls-15">
      <g class="cls-5">
        <path class="cls-12" d="M72.99,60.37c-8.93,3.7-18.11,9.61-25.85,16.66-3.85,3.5-7.26,7.19-10.12,10.97l-1.46,1.93-6.06-13.61c-2.69,1.81-8.59,4.95-14.88,2.98-3.05-.96-5.08-2.5-6.2-4.72-1.47-2.91-3.45-11.35,4.57-18.04,5.86-5.33,15.15-6.58,17.08-6.78,.64-.4,1.21-.83,1.75-1.32,2.17-1.97,3.46-4.62,4.96-7.69,2.14-4.38,4.8-9.83,11.12-15.57,.78-.71,1.6-1.42,2.46-2.1,7.47-5.99,13.43-8.16,18.24-6.63,2.13,.68,7.66,4.43,9.63,11.55,1.13,3.77-.08,7.77-2.22,11.78-1.01,1.89-2.96,4.82-6.51,8.05-.97,.88-1.84,1.59-2.51,2.1l7.76,9.72-1.75,.73Z"/>
      </g>
    </g>
  </g>
  <g class="cls-25">
    <g class="cls-16">
      <g class="cls-31">
        <path class="cls-4" d="M76.16,28.45c1.22,4.09,.14,7.97-1.78,11.27-3.42,5.9-9.45,9.92-9.45,9.92l7.51,9.4c-3.46,1.43-6.94,3.19-10.36,5.2-9.98,5.88-19.45,13.98-26.2,22.88l-5.8-13.02s-7.33,6.25-15.05,3.83c-4.91-1.54-7.78-6.68-5.28-14.59,3.67-10.49,20.8-12.19,20.8-12.19,8.54-5.07,6.28-15.38,20.71-26.96,14.39-11.55,21.47-7.17,24.9,4.26Z"/>
      </g>
    </g>
  </g>
  <g class="cls-9">
    <g class="cls-13">
      <g class="cls-26">
        <path class="cls-4" d="M29.19,74.33s-5.83,2.92-9.28,2.56c-3.53-.36-4.91-1.97-4.23-2.03,.68-.06,4.03,.99,5.55-.57,1.53-1.57-2.41-2.66-.54-3.24s4.56-.05,6.28,.83c1.71,.87,2.22,2.45,2.22,2.45Z"/>
      </g>
    </g>
  </g>
  <g class="cls-21">
    <g class="cls-32">
      <g class="cls-2">
        <path class="cls-4" d="M35.41,48.55s3.76-2.61,6.31-7.66c2.55-5.05,4.91-8.18,5.97-7,1.07,1.18,1.15,4.23-2.8,8.8s-9.48,5.86-9.48,5.86Z"/>
      </g>
    </g>
  </g>
  <g class="cls-18">
    <g class="cls-6">
      <g class="cls-29">
        <path class="cls-4" d="M75.13,34.66c-.02,.11-.42,3.11-.74,5.05-3.42,5.9-9.45,9.92-9.45,9.92l7.51,9.4c-3.45,1.43-6.94,3.19-10.36,5.2,.56-1.15,.7-2.59-.11-4.36-2.44-5.24-5.08-7.58-5.08-7.58,0,0-3.03,6.96-7.24,9.74-4.19,2.77-13.33,1.76-13.48,1.74,.08-.05,4.36-2.39,6.34-4.45l2-2.08c-3.27-1.26-6.3-2.55-4.47-4.35,0,0,10.34,1.39,18.57-8.99,8.23-10.38,5.27-14.78,9.2-13.89,3.93,.9,1.75,10.51,3.99,9.26,2.2-1.23,3.3-4.5,3.34-4.61Z"/>
      </g>
    </g>
  </g>
  <g class="cls-8">
    <g class="cls-3">
      <g class="cls-30">
        <path class="cls-12" d="M25.65,51.88s5.75-.22,10.26-1.92c4.51-1.7,6.61-5.48,6.61-5.48,0,0-4,2.84-7.1,4.06-3.1,1.22-3.8,1.32-3.8,1.32l-5.96,2.01Z"/>
      </g>
    </g>
  </g>
  <g class="cls-28">
    <g class="cls-24">
      <g class="cls-1">
        <path class="cls-12" d="M62.57,45.56c.11,.93,2.34,3.99,4.1,6.25l.31-1.89c-1.32-1.58-2.42-3.01-3.32-4.3l-1.09-.06Z"/>
      </g>
    </g>
  </g>
  <g class="cls-14">
    <g class="cls-20">
      <g class="cls-33">
        <path class="cls-12" d="M68.27,34.7s.21,5.96-8.03,12.59-15.24,7.7-15.24,7.7c0,0,7.28,.23,15.25-5.33,4.93-3.61,3.63-2.66,6.04-5.95,2.42-3.29,1.99-9.01,1.99-9.01Z"/>
      </g>
    </g>
  </g>
  <g class="cls-19">
    <g class="cls-7">
      <g class="cls-11">
        <path class="cls-12" d="M49.39,54.1c-1.7,4.79-7.48,9.68-13.72,10.94,0,0,2.45,.81,7.89-1.95,5.43-2.77,8.56-9.96,8.56-9.96l-2.72,.97Z"/>
      </g>
    </g>
  </g>
  <g class="cls-17">
    <g class="cls-34">
      <g class="cls-27">
        <path class="cls-12" d="M30.68,75.85c-.07-.42-.34-1.77-1.22-2.73s-5.86-1.4-5.86-1.4c0,0,3.29,1.18,4.33,1.98,1.05,.81,1.57,2.61,1.57,2.61l1.18-.46Z"/>
      </g>
    </g>
  </g>
</svg>